<mxfile host="app.diagrams.net" agent="Mozilla/5.0 (Macintosh; Intel Mac OS X 10_15_7) AppleWebKit/605.1.15 (KHTML, like Gecko) Version/18.6 Safari/605.1.15" version="28.2.7">
  <diagram name="Page-1" id="5tLf5yBzmBXJC6Uakjc0">
    <mxGraphModel dx="1116" dy="1040" grid="1" gridSize="10" guides="1" tooltips="1" connect="1" arrows="1" fold="1" page="1" pageScale="1" pageWidth="850" pageHeight="1100" math="0" shadow="0">
      <root>
        <mxCell id="0" />
        <mxCell id="1" parent="0" />
        <mxCell id="pLtHJVitbu6P245L-ZSa-6" style="edgeStyle=orthogonalEdgeStyle;rounded=0;orthogonalLoop=1;jettySize=auto;html=1;entryX=0.5;entryY=0;entryDx=0;entryDy=0;" edge="1" parent="1" source="pLtHJVitbu6P245L-ZSa-3" target="pLtHJVitbu6P245L-ZSa-5">
          <mxGeometry relative="1" as="geometry" />
        </mxCell>
        <mxCell id="pLtHJVitbu6P245L-ZSa-3" value="&lt;div style=&quot;text-align: left;&quot;&gt;&lt;div style=&quot;color: rgb(64, 63, 83); background-color: rgb(251, 251, 251); font-family: Menlo, Monaco, &amp;quot;Courier New&amp;quot;, monospace; line-height: 18px; white-space: pre;&quot;&gt;&lt;div&gt;&lt;span style=&quot;color: rgb(153, 76, 195);&quot;&gt;from&lt;/span&gt; pyspark.sql &lt;span style=&quot;color: rgb(153, 76, 195);&quot;&gt;import&lt;/span&gt; SparkSession&lt;/div&gt;&lt;div&gt;spark &lt;span style=&quot;color: rgb(153, 76, 195);&quot;&gt;=&lt;/span&gt; SparkSession.builder.&lt;span style=&quot;color: rgb(12, 150, 155);&quot;&gt;getOrCreate&lt;/span&gt;()&lt;/div&gt;&lt;br&gt;&lt;div&gt;&lt;span style=&quot;color: rgb(152, 159, 177);&quot;&gt;# Ejemplo simple&lt;/span&gt;&lt;/div&gt;&lt;div&gt;df &lt;span style=&quot;color: rgb(153, 76, 195);&quot;&gt;=&lt;/span&gt; spark.read.&lt;span style=&quot;color: rgb(12, 150, 155);&quot;&gt;csv&lt;/span&gt;(&lt;span style=&quot;color: rgb(17, 17, 17);&quot;&gt;&quot;&lt;/span&gt;&lt;span style=&quot;color: rgb(201, 103, 101);&quot;&gt;data.csv&lt;/span&gt;&lt;span style=&quot;color: rgb(17, 17, 17);&quot;&gt;&quot;&lt;/span&gt;&lt;span style=&quot;color: rgb(17, 17, 17);&quot;&gt;,&lt;/span&gt;&lt;span style=&quot;color: rgb(72, 118, 214);&quot;&gt; &lt;/span&gt;header&lt;span style=&quot;color: rgb(153, 76, 195);&quot;&gt;=&lt;/span&gt;&lt;span style=&quot;color: rgb(188, 84, 84);&quot;&gt;True&lt;/span&gt;&lt;span style=&quot;color: rgb(17, 17, 17);&quot;&gt;,&lt;/span&gt;&lt;span style=&quot;color: rgb(72, 118, 214);&quot;&gt; &lt;/span&gt;inferSchema&lt;span style=&quot;color: rgb(153, 76, 195);&quot;&gt;=&lt;/span&gt;&lt;span style=&quot;color: rgb(188, 84, 84);&quot;&gt;True&lt;/span&gt;)&lt;/div&gt;&lt;br&gt;&lt;div&gt;&lt;span style=&quot;color: rgb(152, 159, 177);&quot;&gt;# Operaciones encadenadas&lt;/span&gt;&lt;/div&gt;&lt;div&gt;result &lt;span style=&quot;color: rgb(153, 76, 195);&quot;&gt;=&lt;/span&gt; df.&lt;span style=&quot;color: rgb(12, 150, 155);&quot;&gt;filter&lt;/span&gt;(&lt;span style=&quot;color: rgb(72, 118, 214);&quot;&gt;df.age &lt;/span&gt;&lt;span style=&quot;color: rgb(153, 76, 195);&quot;&gt;&amp;gt;&lt;/span&gt;&lt;span style=&quot;color: rgb(72, 118, 214);&quot;&gt; &lt;/span&gt;&lt;span style=&quot;color: rgb(170, 9, 130);&quot;&gt;18&lt;/span&gt;).&lt;span style=&quot;color: rgb(12, 150, 155);&quot;&gt;select&lt;/span&gt;(&lt;span style=&quot;color: rgb(17, 17, 17);&quot;&gt;&quot;&lt;/span&gt;&lt;span style=&quot;color: rgb(201, 103, 101);&quot;&gt;name&lt;/span&gt;&lt;span style=&quot;color: rgb(17, 17, 17);&quot;&gt;&quot;&lt;/span&gt;&lt;span style=&quot;color: rgb(17, 17, 17);&quot;&gt;,&lt;/span&gt;&lt;span style=&quot;color: rgb(72, 118, 214);&quot;&gt; &lt;/span&gt;&lt;span style=&quot;color: rgb(17, 17, 17);&quot;&gt;&quot;&lt;/span&gt;&lt;span style=&quot;color: rgb(201, 103, 101);&quot;&gt;age&lt;/span&gt;&lt;span style=&quot;color: rgb(17, 17, 17);&quot;&gt;&quot;&lt;/span&gt;).&lt;span style=&quot;color: rgb(12, 150, 155);&quot;&gt;filter&lt;/span&gt;(&lt;span style=&quot;color: rgb(72, 118, 214);&quot;&gt;df.age &lt;/span&gt;&lt;span style=&quot;color: rgb(153, 76, 195);&quot;&gt;&amp;lt;&lt;/span&gt;&lt;span style=&quot;color: rgb(72, 118, 214);&quot;&gt; &lt;/span&gt;&lt;span style=&quot;color: rgb(170, 9, 130);&quot;&gt;30&lt;/span&gt;)&lt;/div&gt;&lt;/div&gt;&lt;/div&gt;&lt;div&gt;&lt;br&gt;&lt;/div&gt;" style="rounded=1;whiteSpace=wrap;html=1;" vertex="1" parent="1">
          <mxGeometry x="250" y="130" width="610" height="240" as="geometry" />
        </mxCell>
        <mxCell id="pLtHJVitbu6P245L-ZSa-1" value="" style="shape=image;verticalLabelPosition=bottom;labelBackgroundColor=default;verticalAlign=top;aspect=fixed;imageAspect=0;image=data:image/png,iVBORw0KGgoAAAANSUhEUgAAAXgAAADICAYAAADiIPpnAAAAAXNSR0IArs4c6QAAAERlWElmTU0AKgAAAAgAAYdpAAQAAAABAAAAGgAAAAAAA6ABAAMAAAABAAEAAKACAAQAAAABAAABeKADAAQAAAABAAAAyAAAAAD3d+sbAABAAElEQVR4AeydB4BdVbX+T7n3ziSZJIT0STKpIBARMCDSJwmCqPBXIVRFBA0kgadYnj59ysT2rIACCYlgr8SCYoNHCl1KRNTgUwLpkw7pM3PLOf/ft885N3cmU+6duTOZwNnJndN2WXudfb699tprr21ZcYg5EHMg5kAv44BfZzn8Em2R5VuWrec6thUnvh8zJ24DMQdiDvQyDiwFuKfWWdmIrBc+MGp0MuEP9Swv6brW3rSTXnfEbS/v0nMB/KIZlnPxIisXxY+P+zkQ9377eRGfxRyIOXAQOWCkccDaDsF6zezq80HwC7l/vG1bw5HVU75n7XFse5Vle4/4jv/Tsbdtel4kL62lU1i2v1M4iNXoVUXHAN+rXkdMTMyB1yYHDLjXWbZdZ3lrZg2fYNnu53zfmjGgwk7xzOI8HwB4K+v5VkPWX8ftb43dWn+LOoWWkn8+wWv4JAb41/DLj6sec6A3cKAQ3NfNGX2y53vfHljhHNuY9a2mHDK7Zed8RHlw3QfoOZhfom/StnI8Jd73qxKN/zEYtU0M8s3faAzwzfkRX8UciDnQwxyIQHnV7FHHu5b/88MqnSNfafSQ0a2c7TPRarc6keqB+Vl08qmqpGPtavJ+muqb++CIr2/e66PDZySQ1+H3cHV6VXFOr6ImJibmQMyB1xQHBMaaUF153fBhgPu3Bhpw9zNiAtJnsg1w12OHZ6mcZ2cAd6t/hXNZep/7ZZOO/PwZlqvz13qIAf613gLi+sccOEgcANydSNJOOolPVaXsM3Y0SHD3hUtFYpOfJEF2b8azkq59/epZ1XNUHenklf9BqlqvKfY1z4Be8yZiQmIOvMY4sCwE8dVzRr8N9foH0xg6+syfwoZSpe9E1rMyiUA5P1d6fMPKFa2qdl5TXI4B/jX1uuPKxhzoHRyIVDPPvXd4P8f3r2dStW9jzs8YtUwnSFS6fVk/Qz6DmYm9ad2No/sYyxrMJzuR3asmSQzwr5pXGVck5sAhxIEVTJESDqtKvA0LmXP3ZjCP8busUnF3oo+vSFjn5Rq9q5W/bONfy6qaGODVCuIQcyDmQI9xYKmsXNCRPzOTSVTHn4HVjJPxmFi1S1bNtKRZeJZ1AlXNx9bNHj3JRHgNq2pigG/ZROLrmAMxB7qVA7Vh7kPdkW/Arv2sJuzdCcByGYJvuQ0ZPzcg5YzDjvJjyvG1POEaA3wZ2lScRcyBmAPFccAsVMKMMYhtn9o3YQ9jRaqcypQ6sdp6gaHN/D5mXVH9XL1u9si3RhEppTydSJThIXCMAf4QeEkxiTEHXi0cWDY3AHLpxW3HenOFazA3C/SWDXwBcgd8z/VP2UnPsj/1f1cP6S8XCHJK9mrhY7H1eM1VuFjGxPFiDsQcKD8HasMs128aPRKL99cbq3fJ7+UN6izsPWnfqkzYZ1RWpq5V9jMWWZ5GEOUtqnfnFgN8734/MXUxB15dHAitZzzHG0/FxmEaKcQtOw5Jiid/40KY/D+85toRx3D0rYvLX1ZvfkFlZ2xvrmxMW8yBmAMHjwNGB44UbSiw/fGoZwZkAHgC2FveYDLE7LIx4/uskB1lufYnVMJrbcI1Bvjytqs4t5gDMQfa4kCd8QIZILpvH5FiWpULAX7ZAd6QIL2+bXlNZkrXvnz1dSPfZe6/hswmY4BvqzHG92MOxBwoKweWNVfFTErIYB1XwPpT1oKaZyYb+1xV0k7gZ/iTqz487jAjxb9GnJHFAN+8McRXMQdiDnQTB2rDfNfMqhmE2D6WCU+ZMnZTafls5T/ewo2BVZl03mSnMzeYJ5pw7d6OJU/AwTyJAf5gcj8uO+bAa4kD4QSrb2dGALqjpH8HgEqR3tUbSKVTUq9AZBc0zwrscGo2e/V11SdQqG/Vlcn2vgffoTolWQKZYxG8iwG+B19OXFTMgdc0ByaHwOw5I+FDdRrUBaiKxSAfUdxOOMQnESH4a06L+uMgxXvYxo9wHOvjSiFXxb3ZT40B8TrLuQd1kujM0xp1iUTQveh5a1x4TXtaa40h8b2YAzEHys8Bs4KVCU/l7Dr+eHy3J9OyoJGVZARY7RRLFEmuWvSaSbjWALbqK1XFoo4k25QDKDGJXzNn1L1j79hwz7KggzF0tVN8jz0yIB5NAt9jeXRqAW2LWiEh4BvVIfA86gC0qCuKHQN8xIn4GHMg5kD3cSCwPzd26Z5tvS7FClYAPge4tyvBC73AMY/9Vx08Tv6Tq2+y4fb/9EnY1fI5w8NSXBwkKDPbP+UkdqW9j/xrZvWS19XVbwMYD9oWf+r4ZJu/bKtl19YC6AXgrIorSEJ/8/Axwy0vM8pynJFsZtgfx/m+6zg7gPL12YrE2vG3rt4RpRXQR+cxwAc8jP/GHIg50I0cWDYZuJKUCVit861JLrAOeEvSbBegUTablVCumSr1N46dt+EHa2ePGpN07C802qBc8DyEwo4rQER7D7s/Vbr2yeR8HSm+gC4+F44wAmm442w6HYMCbEsuE8QP5iSoljo90/FZy/Znu/b6MdW+7x2NAA+dzhTPy70e7VQ1HKtkr8IEG6NoWS4eOP09bjqzcs3s6sU53/nphPnr/yZwj0A+Bvj9PI3PYg7EHOgmDtSGE6yrhw4dCraPQwoH4cxkYfslMitKBCdrRF1rjSJnk5m7dqUTFyKJn4AkXtImIWTmklUGXX7Stv1rmXD9vX1n/bPPXDslaVnLM+0T07mnAltS6mdZN7GRuEC9hcqF0cSQiqR9hO35J8KYk30v90ZondQ36SRl30mfZOFfB2b4ed2UY/v0c/Yg9hw/ybWdk3anvWvWzKn+wtg76r8VgXwM8Ibr8Z+YAzEHupMD+/EsNQJYH5sJZFYwvsPgy1xe4MYBFY1lTfjmls1rZ1d/bU/a+wnglpRjMW63OxIoLIVRQQJ1j1wKj96Vzn2YZ+87ceHyjEYXspEvjNuZc0npy+ost3+9ZU95xahdlKdGKxajBRNeuOHwAclM5UTHsY/jEVsM2lPYieqYPkm7n9RX2O5LhWXtYyUusI5Wy4x4mvFLkxC6y1aHimOhxhrKvW+unTOyquaOjV8SyMcAb9gd/4k5EHOguzggwENiNQDHBGsNWHS4JHhzv4hCpZ4B7Bptx38hiv7isPpFEzdXX1CVdC7d0RRAXfSsw2MwrevLDw6kXcYK19+Ou3PjLztM104E6cknDJriTKle7gOsWYA8dIkcJNIWgrmm3DjbcV6PlP4mYP9Epntfz2reIZXMGqsGjaTQLHI4t6CEGr+IWkf9WzN0b06LYea+tJ/GuVrKgwImkZ9kEnlxDPDNGRVfxRyIOVBuDtQBTkiTyhbp+XVyEayFR5wXZUEjfT3Rt9kZ9yXl8cINkyqOqFvZ9NJ13i2vNFnT+uFTXvux8ihpIFuROg6JJvaAPazCSe5s9G5ERfKQvbB+m3aZOnGh1aGqpg61y02oXZbXT7EB9Rz1Q0pfnpf+lzJxO2Hz8BrLSRxj+f4Ur8k7CY37sew/W1NVgRYd+rDosbTZCXQonUiXCagBdC4CQA9RvR1wV03DLstKNuassE6593E/BnhxJw4xB2IOdCMHIrM/isC88chUyo6k1EAv3XbRAj1bLuN9396Y6p+pV9RJg1caIJ1w56anmFycDxLexO0kP6kyOspTWZhAXLOHK2qR0zzb/wA3vyxw9wHvqEMKowajDU2OIqUv+/dyfyoSeh3lAepRFGv1zLEjmS04mlgn2Fv8k4Dd4yB8Es7OEoEePbDz3N3kaeygDk+ALrQXzQGGB3/Di3zWRZ0w8QorfAeVjWZvT1o1e+iIWIIvinVxpJgDMQe6yoEVs4dWgV/jpVUWEgm92wvERS0dYZ3/7xFf37zXxEdajiRtP5tcsNfKvH1AhXMiG27nSFMUwKtsxeWYQcePKt+as27W6D+MwQpleb3R5xtLFJ1PqQYvJaEb/fx+Kd24XHC8I9GvnABST7HszAlkewQmnAMqGHYIxRuR0PemfSmk1ClRpKFPNAZzBrpTphBmhQbIFDLEtiqqYoAvE3PjbGIOxBxonQPRBGtfzx0CvE3QBCIYJDxqF96IoxhRnJVh7sau5kTmIc2k6MI1G1fPHnnrribvBynHZsLVB1KtDnEtypRjgonM7MAKZzS6/A9RxjWS4lfMmJyy61akuTaqJZW96qpxlW5lbpJvZ4/HHn2K7edOwE7z6KRrDetHFyF6NTFq9OhZQ4esGQXm+mmE0e2B8gzbINpzsrbfISO6naK4gJgDMQdezRywZ8hFASiPHfcoKjpSFjGECGPNRWt/BFayoAGAEbV9A/CoTwT5BsSiNGOHbfzp2i3V56NquWRXkzDVPO8w/zA9UwGWjVWNUPjKdXNG/m7MHRt/PXnRCvaDsuy1s4aP9xz3WID8JNtqOoEBxWRuj6lKWo4mf2W+KCldowfokj2LkN7lPFEsAVE9ynA0oyKptAib0k56dwzwZeBqnEXMgZgDrXMgVMcEkO7ak1zbr5RNe7HBBeFzOX8nHgYiCR7sDABeJo3PzJyStOuWZ9bd4NyMFF+LqeBwOoQM+ZciMbtZJjpJm9ibtb60enb1KBTjFWss61Rs5Y9BjzOuT8KpxL2CxSpSMznKdoCR2kX0SN3iGmBXxQKA1VnPBrGVsuWGmT7w75Pu3LxFQ4c4xByIORBzoHs4MHc/3PlMsPZFrgXfPcCwKBg00qgsaHKJNa0ROGXBcowLLWvMbeufIsOFpkMB3Dk3E7GtpWn1Hi4PUK14WPgcBYm3sRDq6wNT9rv7J+2juFcptQsdSHY3nQdeMCWpI7+bctSR9A4cDUY2rjH/tO3/VT17B2Gtcjy+GXMg5sChzoFFBRY0juNPsAWLksDNoZ3aoaaXikQqGuKu8tP2K63FNpO1mCTqWTadvQMgXo7VCgXof2lB5aFDl4Mv5k19i5WhuV1pP4MZozoRjUKkdklCj1QwHdWgtMLLE9vrR9eWznn/8Pz0/coyBvjyMDbOJeZAzIF2OLDumtGHY+o4MXRR0E7M4JGAW92AAB6sfWH891Y3tpUIC5fsUkB+wl1bNhP3ZtQnOdbwC4yNdN9WulbuC7QdrYxlrlRGMCpeEro6kN6OlaYDkgUNNj8Lx8/buomzXk+0aIxDzIGYA4coB8wEK7Tblf4QEHssdvBREJi2GYz4jZSsSUz04Xn9+9w2UtSG1i7j5tf/hGnWX1UAyQJo0020kaad24FOXWOHQyfksASyGnL+knSi8fsiW1ZGvb1XOnTYG1MacyDmQDMOALBagmSwOpPzxvNwkNw2mvvNYrZ+IXRipSdSeGhBg0R/U12QX8sUSPGyWzeqGiZGv4oUvwV7dC0iKk0X3zLj7rtWV7e/u+tCOfAzQ12TWPK8Qm0/e8RtL++CF47cQ8QA3wXGxkljDsQcaJsDc+uYiAwm/qRrOYLJymSBBN92Qp4gOvta/Ql47fQTXiDBM2Gr+20mZDGSOo+a2zc+Q7wFisdRqpqDD/KmX8OTpNRGqH8gDT9jZdGgZOVwTfb32JJ+cuyd9Y9F/KEsPwb4iBvxMeZAzIGycuCmgtxA+onyQQMMFSO1IudHLgqs9Y1NzpaCrNo8FaAZX+vEaHK925hwfRbTx6hHIMseDSpPddU8QJaexqf6Lp4iE1UVtqvJUFUS4kqmqyCBOoyE+IqRz9fH3r5xITka1YxGNDqPAV5ciEPMgZgD3cYBH1t1FCiT5HfAhI5saIgmsJYNPJL/yudeqW/VgqY1gmUbL8+OR9y2aSvi/ldZwORj8iidejEdS2tZlnIvAvSMyqN8B/BNAOYJLHsc1QeLnAbURyuwt19I5KUpDVME88Gvw7IUUQkIKsvuj96dOv7c35f6jG5KTVXo8jgGeHElDjEHYg50Gwc2VWw4DFSaKC2CApOgIUYF1y3/AnlGgjf3ff/Fi0v00R5N7NbcUf8zClqEC11lJVE+pKBliZ2+Vn6qlgBdkrojCR1AT7IZiSvJGkBvwhfNC7vT/r3prPcpx/cu9PalTsTdwZeZIKii8xG0G7DmrMNgahLUw8P/joNt/iO5ZPZDsjKSfx4kd9GRD2ZSIn8Vn8QciDkQc6BcHLgJ6KoDAXPuKHwDDzcmfOTdLrrzXKhJHKcBe0U6gxe4NGFudNLBUeqJaPMO17W+jMQ8DbAdErrlDZx8dZBHO48FxqavgkZXowNAnSOzuVQQadprylrrsfn/p+fZyx3XejKX9f42fv6m1VGe8mnjeO68ARX2SUyMelS2NEEbjUz/lJ3EK+W/LdubpQ1QjORed6Cb4xjgI67Hx5gDMQfKxoG6Ost5fu5k8AWfLjYWNL59mNn4FPwuRow2PuA9q4lt6f4topTfTXXSQBQX5ob+b0bdVv/sqtnVd5Afm+XlVTXFAyrSMiOKHB0NHoUBYnzMsJ+rg509HZEBdIH6Fq7+xbO/Ypf5pOf4fx2TGfVvm12iCqhVv+b7dZNTa7e8vAB3k28F3KPHelZU0GhBIwQ6re0wcs7YeZtWqDOz6lqfSOYFxCHmQMyBmANd5wDgYwM0Li527ZdWWJ4cdilXNoM+ph/OueQ0jNAhmBEBvbmRiLf4nrdeiY5hRSz384ioe+2FOqR46eKl3qnIWrfvs/zzAcY3oi7RDIAIaYsOsByXM/xMBAAdHzRmIhOSjGMxJm93NmC6SSbPgf7PQNlfcpm9/zdx4Ss799O0SYWYrftGb5/EnMDKJj1bt+WV/8avzZXsJatLWdOUMqLIMBJJsuMTc6r2R8bO3/CgymADbx+9u+p0QIgB/gCWxDdiDsQcKJYDEYhp/1FbOyEV6IBXIK3227TjdITfS3OBRbZQrS1gjYo0Er500yxdXVWVyGyLHpR6nIEduODctuu3rZk16stI2vcgybvoV1rSoWtpkATuruKwS5Qrb5FaeUu6RswQVxHnb0RYTuezPOWlnx8WrhYtpGspk5ziBT7ktcuT8vTs21Yavfia2SM/SNzPyJsmdOlegucdMkT5Q1fWwRxS51zVjZ234QfmlE1IKKdNM9AY4A2X4j8xB2IOFMsBgeayuZZbSwLApdn+oy/OHDQwmaw8Dsdip/lbXj4dK5hTkq4zCP13hGUdATzoB8oCrgjaLw1m0Y7omqE/JQYK8u+52EjIuZr5G36xZlb1z/qlnEuRnuUsDM8JZiGQ6EkwEasJUiMGM3FpoQJZzbzBP7ixHNXMXzBd/8eT2zavaTnha9Qj7PJkvbLc08Iiw4+QTqqRr+u6WSPOQ8/zjUrMI9l7VaobA9b5CO3XTTp/qYbobKwFgPsXFV2dSWF5rWURA3xrXInvxRyIOdCMAxGo66YEWw55a436j1YPaWrwT7R95wykzFNxpPsGgOzw0IrEasRUEagrDsvUDTDBqk1BKGmludKfUKeevy7yRIAcTbiu9q2v4kDsLZgsDkbNYVVh6aJs5CmS3xb2M30e2F8Ooeyc7f0tmXFWVS+s31dYVB1zAe8IdnyyQikd6Xn/Lk9RXAPuoXS9fvao41ndNL8qafdnNJAH9yhuB0cz2hiQciw6pt/vsTIfU3yzo1Urk6ot84oBviVH4uuYAzEHJMnac+twDRB6gwTUpQbIg/q660aPyjm5k8HtszIN9iloVI7uk7Sq5DM9Q0xtgsFPYCZoL17PjBCNrttRekRsM8FqwLLOCNedezNh5zDuzvpn2cP1q6ym/Qoi8b6dTb5q9ywd0tOO7T2XS1a+MP7W1TtaFuIjKVtsrm2kdNQudACqV7thGXMRUxndGD5Z/kIAeiydi/hXPOYGE7weHVECcP9LNmvNnrxw655ou8J2CQgfFterFpNTHCfmQMyBQ5oDIZDalmBPE3eAWWGF1swaPgHhmk0w7FpE8pNB4CP7pWw0G7ioReIWKBMi8BOog/slB48M2Tja380mHNMmLtj4DAB7wCbYpeYqyZuf99x7h/c7bEBiKukbMrms2RSjZV6anJ2A2mVK9XJftjdUz1SsZby2rpfSIRhwv3F0H6/R+xmLkS4A3M2kLRmVwpOsFkkh9a+HF+8SL6K82yq75f0Y4FtyJL6OOfAa4YABdEHXXMuW3/YZ9yCdtgCzNXNGCOpPRxCfCsydSOwJgDoBJEdSR7fOLTsEdb+zoF7I8Ryg5mLt8rybsM8dfduG9ZGKpTBSZ86lKGpZP+Vj+IDELeufaHK0M/mbvOgcopWkazHPxFXCbACaHtPYzhc/kmG0hIorAX+10fhlY+fV36eOzmIkQ15ielGh+OFCUdnFkWIOxBzozRwIwSwv2AF4ktIDwBByAFCrh4461rG8swDu6UwwvhGVySj2O0Vg16bSlqxKFF8qGwUkUj8ZnJblr29szG1vdYPVd2tZcgwzEbhLkpfJpSZtlw+ynCmvUP8Wk6OdLVMAzKjH8AVV0CdRV802uysxQwsqFw3uvIYsljwJzUMg9398/J0b7otoKgXclSYG+Ihz8THmwKuUA6Cx7NONlN6a6kUrK92+jceyjmfqWt+aBg6+Mek4Q+VTXd4fBTR7msxEqQEvQIZtSrsFO9RxaBNsidovRrbj5XwtAHyh2inqpLpchOGOOso6bN1nj7yC5amfg0/inxyNwcmig2hKqJNrzFhfAtznK6UZxYSdR9E5KaNSIsdxYw7EHDh0OCBdsjEvDFQvAbAtCuhfMXtoVZWTxJzRnmb5TdMA9+NRCRyG61l5JkT9gv132oChsSUnlXTHBi8EwN0SDLLLRYExuvlnVEa0KjW67m1HyLati5HesdhZd/3oWs/zbu2btJL7MvvNIYukWXvVOnibtHY3WT+s2bbhs0onvTsjg/wEd5F5mWgxwJfCrThuzIFezgEDNpjnhZJ6IKFKlCSsmVUzyLVzmOx508GkqcD3cX0TVj+HfTG0c5Ik9aacAfUAw8Ol+VIgd2vQmn+pihwrhx4jZXoU31+lMiO9c123EtDFzNHfC4BXXV99lOd78/ETMwTnYiVbzMADf0AlDsTS3hIn7XxYHQb17zS4q1YxwHfx3cbJYw70Fg5oGC9pt05D+VBSr59ZPSSX8E/MoU9HNq8F8Y+tSjoVoln6dEnLBEn3OgFi+EXOr7oR2MlaZdKlmGCcdmGN4+KAy9q6z9vI/TXmCfryMG4Qs5f9DT04ZsTntGffOSBlH6WFVNAsNRaHjoNhvG0bB2Kkfd7JOteNuXv9y12R3KNSiyIgihwfYw7EHOh9HDBSroAQiU/UCRjGb6l+E8rsC5jcO5eP/FikSldoKqsXOWkkmrHGMCAUgHpPYIEB9ZCDLnpmbCxBQUqWnxro2wApf2Nm8e6xd278FbflQr5Vy5cwj4N6iKTrZ/B3PySx8fuA+2W7g7kK8bcUc0jjQIzJa21sciEWM48a9Zomf4OOt9P1jCX4TrMuThhz4OBzoHDyTdLk0OSoc63N1lXsS3ou9tdV8hAg+3RUBvul9IBsTWYGINS90K5y6XhUiJ9Ez+8kAXV1MbgD8MH1l6DsaehdhkLikXELNj0fkGei9FpwL5SuhyY3frGPa1+2h8oQVF/VsNhgHIhhFppGi3/D2Ds2PEou7ToQKzZjxeveV1sKJXHcmAMxB0rigAH3UGpffe2oUyzX+wj6lXcPZCMIqV5YLLQf1AMpXfn3xDcfgrqpTlIbbsgqRLp1A2T4eAfEnrQ9QN32Hhs7f/NLhRU3I5K60uy9C9N393nkpVLlrJo98kNJ276VwYjmMIrSu6sbCF9CFqdqcEdOzayP1MzbcIvyLHyvuu5KiCX4rnAvThtz4CBxIAIBgeG6LaNuZJ7y04dVuoP24IYWP+NZAEQYIj0w0EoIEaUbyW0G6n1w3iW3BfLGiPplb6Pl/xMankDn8lAi4TypBUyFtKg+utYcAhOWwkD9el0wnc9NSOnwc/X1Iy+0Pft/VE861Ay3kh0RXADuZj9VOTjbm/FuGTdvowH3wpFBR3kV8zwG+GK4FMeJOdCLOBCBu+zX12xO34xJ3iwh+CuNXgadizFnjNCxm3E9D+oCNxZDmY0wGDkI8HagGvobdDzONnUPJ3HiNeLOzc02zxaYia21gTsAM38QTQ73InbnSaEuxo0Dwrq3fs6oU9jB6TYciPXZjQOxYsBdGYXvQ3yz2dZPDsTu8fdVfErPinUgprjFhm5+/8WSEceLORBzoBgOROCuuGtmj7p1YIX9IUntoGMamTdVTB5djBOBOp6ArQSSulG/SCXEBO4WwO9Zz7cfY4PpR7yc89zY+WubbZiNBJxYBgEhqEf9UBdJ6pnkol3mkGtnjploJXK/Yo7jDbgWzlB6h5J7nsLAgViOtAnSPupZmRnj8StfigOxfF5FnMQAXwST4igxB3oDB+pQx/ATwFqr51RfXeHYd0uvjQ170RJkJ+ohENZPKgVNeibwrwLSSbWgsv31PHwGxcojHB/v0y/79xFf3yz/Kfkg8MLHi1Z5Kg/ldciFCNxXfXjcYU46/XPmOc4BoLOw30UsLwpHVXEiZnBXrC33XrC93Ltr7tz8jyjv7mBKUYR1R8FxnjEHYg6UxoFIel9/w6jRuZz/AKaPR6Me6A7JXVikn1EloCZ2BeryGolXRIxd/JfYqu7PWL48lLOdJ3NWn/9r4VbAxnQwYbwxHsKgHr2dpUjuU5Hc1cFevbX6LtYRvJ8NrzVtLR4FlkhR5PaPGfiY3Jf2XybaJWPn1z9o5h7KYA7ZVrGJth7E92MOxBzoPRxAyss7sspkrPPx6Hg0po9aA5osTn7suC6hhClduI11h8PeoY5maLU5NB3J85jBPA7uP8SiqafHD6t/AXWFGU0oZ9LaywH13bjYrRWoN99wuuPCe2kM06kC7iLv6i3VdVgEvX+Plv1q5W1p5pDyDon7Ah/22TeyK9OD4plZcbzIdBTdwoEY4LuFrXGmMQfKzAEWMilHgcJax69N4W4QvTdgUZLNddtE0VUA5rZ2OSJra0ejl0Na/xvFPewgqWcs6y8T5m9cU5gB3Yu9/NoA1C1A/cRXCahHdSzsVNfMGjmT+832U43idXTkxWk/1YQ6UNh807h59T8waTrYT7WjfIt5HgN8MVzqvjgth3dBG+haeQICAwZtZFOOMpR1a+WUK+8of3Osq6vT0YTwvDPltKQ3L31Gebc4toxfapkt07fIvtllR7TkI2/8aPVgq8GaIPNDgsroeggm/mwAO7c74/0Z2fQBQP0p30n8reb2dfWFBfAqzJZ1u6VTZ5enE63lYP+rL8BdeeA0TF49a9TbUUd9o4IJZSyDirJ1L+CIfOyH+6l6d2IO+UU9WxpO2BbE65bTGOC7ha1FZaqPs+gPu6gcg0gdAFGdJupsgLIcZZcjj5ZVE20GuEIa8a1Sd0AcbiiO+QBbPmzjugO+HJCq1PgtM+hq+mb5ha5lrH0NFjvjWf0CfA8k+q6iPADkIbW7bOCh/Ud/M3Zb/c2R2wMRITAavX2Su7NpoDelbrls7F+VoN6M4XwjUkEhuU+xHX9e34RdxaRyaeAuBRrtVBttk/a+ZNb+qMrwewjcVVZX24byiEPpHCgVnEovoeMUGj10FqC7i34D7i06H+fkk8+rSiZ3uyySyT722GO7C6rWXXQUFNE7TqMJ1lWzh47AMPGP2F8fD2hoPyXmQMsSEOABNcvaRW4rEM//yPV94+dt+Gth7oCT09buT4XxDuVz1TGaX1g9q/qngyqdS3c0eWZugnq1HHW3WVV4mUPqd5uy/kr8EJw3ad76lT0J7iIsluDbfD3d9sAA6xlnnDE06SY/ysbCQ8HZRtpNlW/7TyxbtmQBJZuePzx2SMiMGTPcRYsW5ZRnwklcT17jyHMPCRN04ZIj8A9o4wjW3mo53pNDtgx5cNGKRWmelwryEZb4U6dOPdn27Q+QB6ZivoNVBXk5P1+27MEHuad4qkPRAVBnZFHn8TPpamvPfrNt586hjBOwsB6DiXdfVMR7p9VOW02mD0H5r5csWbKB8/bKMs+mT58+GCj8MLyuZmk8TrbsbZ7l3bps2bJNpC/kQT6vaWdNey/vYzpxG2BgkhWLP1ny8JIlxFfIxwsu83/z92tray9hnvKtpG2C/WTlO6QKeCJtN3yDln4hLbdDy+roPeZza+Vk39ZhL1cNe2U9dubHk53y00/5dTkoEyYCB/A7hT1WT0EdMYediR5EXfPLbLJiqTakjoBPTDQWIMHK084KCl2mudszsFmIG6nD9B0Vz2nTYar35QVt/MvW9atCWnuUVzHAd3sLaVaAmod5wa6butJNJD6h16/teJPJlNXY1HgswPALPvZtHF2OZva+WQ6tXGzdutU0u0QicSRI/rFkMtk3yxbsxlOTwQAQQLIZUIZ5nb996PbfnH362R998NEHX4qAtZVsD7gFADnqSKAtwZTcZ1IVqbdnM5BI1pRtNaWbGkgkgI9AR8cOg4ANOsxKRjqOKQDxx9AavMN1ElXGnWCUA7kxBah9QS/KZjKDOH4+fKT6H1BWRC8erV4HvH48mUpUiA/pdHp1Lpf7htJSrvmF5xpB+Kofmb2voqJyejYrsvDAaHmql4LhdXB6wN8COpwrUhWV52ezGRNJ9SgMuk4mK6x0Jr3WzbgL9eyll15SZ2P4UBjXnAOkWuU5edGKNKC7nPTvEDvynD4gQck3DO0sVvLkcZILF6AfjmOwK/akrcux/V6+evaoe+lYfjvm9vV/57noMW6J8xuLdKO5X8m16UICOjE/L8Xb9l04EbtIHR8rdPVuinUkJn56cslMeONJQ0e+BZz/k9nQ3NzqmT9qUHHoIQ4IcFQU4FqD9HWdjy8ogDjn5by0gIAWMdTzEiMVZ/fu3WogRQUAyXQaSJk1fHZ9M9jRsatMjl8AeyCBznMUBcDZiWTynbmkN/+0007rD6BJai6mHdiAe4hS7jvJ+O0AJVuSAZU5cs5h0OFbYyZPnmxWU0Z17agCAnd1GoqH1PxBFszcn0wkLoXMKvIEx/YDI5spiF+mLpbjmMU00N4hn3zXH0f2FUqrHzz62yOPPLJVZZJeBxPoUA0fEtlENaUOC8rK0Snmdrg5y3g5DMvbT1SUmCN1MbRoJMXJMNiitBnxRvUo/JlkysWzVuYSubW6njBhgnmP5lmLP5KcBTq67fr2nzCR3IMfE40K2kzTIotiLkW/AEw+bAT0OW3Vh37eZiPsE/slrS/4nrd47ZzqH6+ePfLd664ZfbgyvRigj3T2UkFEdOrZIRry73fcHRueQGz/qdwaE4LxcLGVYsMUJsM91iv0g4WzaQLGpXNP8qeYD7vY6sTx2ueAANIAWTbhfdB13UkCMJKYxmSAzLYOT9jeOGXTv3//fCPTdTvBqDb0HAgZ5/A1kheIAt7SogSK+imwthy3ID6dSRaNjXNORaLiIvMg+NMuUIbA5p1zzjn9sCi4AfpVTsYkVTEBEI8dPnw4Kqe8NBrk3MbfQnCfetbUj0PUQvIdzKhA6iOL86AOnreDOmhxSEYjBZXFfwOKK1asaItu8TuouGdNxKLbpDOkOPa/zDH4k+czIyHzPWQT2WoyHRnWSYxdixOAzYreTnmRBG6lUil10qPC9IaGgOY8yHMZvBsg+0U6FlR0lpWnVxethdBUcvT8DX+GqF8BuopVToCPSlXG4oWBNfYV9dD3e/LZTqcylIU+lwNYv/QqvfvXzh71aRZeHQcTNUaUo7CsOqOlAL1+uh9leigdVQeNTEQz/fN8OrptSPGldahSY/HKG4NB7nlr5ox8l+FB+B57gh8xwPcElykDMDO8PvPMs49G0r06+vglUPMJ4IvJKPj6op49QiTx0Rf14UZSI0mkZz+C/ARIaMRNY5zP6fnA74V8aDdRxnbupzjmFI9np6sswLujsqS6UFTUG7lLabdn5vjqyYPFjXZ+qTZVGGXn0HMXF4y6R1Gl7yazr4omOr1GOilDI8OC+6DxAyj4L6BSF1CPS3PZ7M+gf4Nte4U+TvIg3aLo4L5tvU7sMXXWF+dbL4bx9E7yaY855hjTATMSmsD9wyiHgYJ5bat37NihDqaoACDUEHGI0lMmuyfZf+VTv4L3/m7uXMrxEq4vyWWyl+dyzm0FmeZpKbiXP5WUbPTe3GEv1VtxLrYZkNdCJ9Mh5iOW8wS2kZ2YoCMqB6R67VjEVVUikOqRUx5cN6f6R/jGuWjldcOHqfipAL1+Vp3Fqlbadzj60LNDJcyQWowwYcGG55hz+F6npHh4hxSfY2Ga3ALPfuGGSRXmPfYQPxKHCrNDOm0BZaRzbqnGkNQ7dOhQH0lIL6Yj0OrJqueld8fxZiOZVmvYTnAAgSaOshBBJZ+ws7nspJAw0a+Pqt2PPtLbnnfeef0b9zVNNDIHUE9+TA46P2HS89Ewv19Nq502EsC6jrINapH74PCZDm2WJZ5r9BFOVs5xHNeoe5QCDIvoVw6DqNVE8npa6obly5cXZN/8VB0TeVqol46igp+XZM7IogHe9IG+zQDgp5YtXfqd5qnM1a+YgD3bsb2VumpL6qVDivTplYDqBNPvUZD4gv5hrdJSdmrr1qFeZeVL/oTGCfaePXvEg5w6WddxEqi1mDsmJVI2dQlGK0rYRjj//PNzqrPte0fYjlMptZipVyb31NJlS3/SRjLdbpP3B6QJdfHj7qx/ds3skTelc/ad+CNPae8MMkkeEL98N0QjfRPB9JHM4md4+zQyVncOwVrkchZGXZ503OVI9b9B/fiHmm0b/2rXmTkF8y0K6GU/X8s9Mmu3XZeP7M7nBO1GipcKih7t26jFLsG52hizwCwc3XSYe9BB+k1I8YTpiWzDpRy/v2yZ6TS7HaN6NcDzkTr33XefGSYJMAQy+hlWdfAnSivQRxpWmoPWoPIAedb0kzCnuByQCaRJz0cK9X/BxQxwRJOGAsxxAEVf6r0vStdeVSNVDvrwEcDEKIGKpE6Om13Xl8mbJbXKAw88IJ31zjAvDR31ucruOQpt8UdAbJ7RJ10F8J2gzgkp26GM5+CqBpyXB+W6SXTyAvgIeFsFLuqV17sz1JiZTCTHMm/QBN0C951w57plS5fcq3ymTJmSjOqoa95lNrTU0WWr+etBpEqBrjGstx+R57nvbWId/lOKQ15GNaLz5fyjJiYA6WPFQ9Kgcmbawrf+HTwx9WqTT7S54IO1A5UQdQnSW34zU8MoLx3pZBKqU+G99s4FOpHJ5Nh5GxesmVM9vl/C/gREJZkPTsMRMwciIsWcbgkBaBmwF1A3ItWjr6cztBK4wJ3CrSl70vYN64ZWP7jqOuu3tpd8aNzCNRtPXHjo2c8bKZ7J7Yl3bPj3mlnVd6EBnUudjeoFBhfFYt4Fawx8PEjaLp3EzBdnDrp34sJXdkbvsVveUZhpLwT4OmfKlPtcATofjIDZfDSF0iAfRWWfPn1SgFqSH4YVrq9fY2NjGguSBn0w4ccW9ZC2gEISVv4j7E6uNs87r4rwHOt613EP12RnIplwWGn+vznPud21vbeRZJBAiDCOkYmGuasj6Vw32woaseiZgIx2Vy2gldTI8cXFixez1NyyBO7wbDQR3xqWwaks9/KqijYbatTJKD1IN7MQNvjCF2AgudmxXQG8D5DiIM+eoDIJWqCk+QFDX3Cr+V/ynMTbvVAdBsG0RQi5demyxXlwb0VydqApGhG1mXc0ynOc1FjmIY3awJTu27vtjF3NRHc/1FUVGScD3Rrw+Al+e5nkHooEfpT4xE8PNHv8Qki5Rj6tlhnxiWNq+9btYyX4E2zxhVOfideR3KtSWdxDwNc8prWJtipzVkVuNV/uHxA0xJd+eyoqkJot9Z9eN2xkMuU4H0kmrVSDnI/J2SOjwwMSlvlGUENDu6sPjfbgIcXrFD829lCk+st2NnqX+U5mOR3R7+Hr72rmbXpaZFBZcajoOivNwQiFHSqGbt8DoK9gDcKRJS56MqySS2XMJk/1E32usKxX5vVEfXoNwPNhuAK05cvrMoxy88P7M844d6Tr5iYik06i5YzjWxkBNg1tbGgcwLFvwkmqDr6X87OpZCUfi7cNVcR64jKE9/4B2P3zwQcf3CmgUCchoOcoialHGhcg5vARe5j/TQcxLuTj1ufsGGsO2/823zng4Wzn4x8tUOEjGe7bidHQt5pfR0FApw8KJLFrbNfpI0ARgFC5vrW1098D5O4DpwAt/2IA7TieSf/ucpTt/WKljcBJ5y3C/vxtdyb4faTypzO1AeV/NaYbvldZWflG7imZlPr6O+H0008f9Oijj74Sjr7Mw4J8I3DmlnsyMwU1pM+Rp4v0/28w4keKi8qp4o9//KPUPy2DRnIt7x1wHXV8wOl45ib6ibd0JtqJZ2LO9n5FuboDyHASko+1Ois6vRT3R0r6BoSxmvc2k3aDCoBPeX60LDDqjDdv3jmcj7gmfK525vJWP0U7vVHvnessnXw/mt/L1PU6rv9MGynaJDbM1+i4BfIAEGVs/CjugzfRZXx2YKVTJedglJWmttLPG3CJ0nXXMSxE9TOdoJb0G0DDB0u/pDOFxT5Tmjznekw8cS1sfc3Gk2JEi759rK8kELRsK1GUg3sM1WLV36xfi9uCBbQPmdhiZcC/YvmLzyC25ctiUZOgk7jmpQ8M+6V915bNfv4ddk8Vu72X74hsSXk08IRUL5G0hq73SADx6qm1U+9KuJn7kMDuhanfTbqJmxKJ5LVIv+/meDbHU/m9CRA/md9piYR7LvevkH05YPRt23d+k816v8ZC4zPkx9CRoXigSzW2zh3R1tXnqls0/GYAOwcME9BkJWHzgT+4dOnSxQCRtuqtB0wC8z/02CDRJJXdntmcnguYOZBcf+xJygPwFsAzJ2S9CcT9Dp3gz1hWc6ebcKdRdobndli+FiUtU9pIBaPzwiDg4Vq8OgoUvKrwGYX+8IknnmgguwYKZ6MH4Tt3bb+GUdR+ibkwEechzeYuSY6DJzqX+SYl+U/Dr5W6cfLJJ2d07GTIdyIsMTjS0CaJHNaQXz/4NIlhH3p2dxLlmx/zCpPg0ZFcjyM+E6NyEGU+j9UVTRXNdiJqjybXzbCYKrDAIR9PTKGfGBPmrXd0VCqVHEN1JdHvbi+vjp5JghfIK964O+q/xszLRUjMj2kTjv5JJtMBH96I+NjTwKlyRVeCufgsftMbtLRrcKVzOO/4MOjaJ5oBN6cu/PZDcA/7CT3tPUFSfMRn307/BGuiZwFqQbs68FKCjeQvS6Q3JlKJ94YJtYyq2+p9MAHeBjgSerECQfXigPC5U6dOW8ig+Hd8jXcD1tcARlP46AbrI2UC0kfyxZDCBNkXp7lKY2/Mj3OMyfnl+GsaNB/VMGyqpzpu4nPw8LdTz5q+YNoZ094kxqpMlc9ptzGXMgx/sRJ5Fy3+7ZJ0aRUJaNzt+A40GXDNITn+XecESbJU1Z6gC3V6HNqkL1JDiHd83MaCBhCPPmZlxPybbSx04E8OQIMdCSeTziwBd/5bZcB/0Ril0a0o2OKRLliReZ3rJsYobwCKieDcE7t39zN7SDY0NLDXpv+SwFD1A9BkJjlO6Qp157o+IPheNfTtv+1bRlLWDeii3Xc65DOlcqbjIyfxkupjtBSVmY8Fk8NzVg+AQbRA3Qpurr7/ifs7tKCJ6spoaTxpjQUO+djyzSje7A+0APKlcqsZ/ZjOjHbYGv/3J2nnTCAfWdbU3L7x/mTOeicA9J9Iif+UGSUbU2i/awiwDdB3hantkNHaI+FWhrITh1U4fZDmN21vzN3oVLq1eFN8fCYjaQFnHW1M6zHgwQgy6UHyWiO57XsPhd+Idl+iXgu0gIkmkyRFKe/OxTA6I2scKnpV/ZyRY8WD5TMt00m3XXrnnxS2vM7nUmLKAFTq8gACsL9t69btiwD1X7DU/oMAswErA9aANtjEfL356FSSaBZDBFwpOIVJnX6cBww3ZnvYe2sJjgA/gwbAAtyqE0l3pu9av0WF84VTTjn38BDAZG1Rdj4IdJU/DbcSKXIWIw3RmEVNore7FWnyOJ69r7Z22lXcmGTAkRMDKr41IaKpUOKlfq2GTZs2HU4zG0v+ytssZqKjMJOtApfw3IUfW1gBemvWS74H2tarDH6tNlBoM6I1xxORuC5T3vyiuDsGDNhzkejvk+pzFU29v1osz6Hf6U+HNV6E8lzxqXAbAeuPwifU3ZRZeK8z5/DMlHnuueceDll0TBBhGCtDnexz6qCYB3mq2S+XexLTzz9Ty82GDqxDzDvxfAPCHdChtqxOgeBPhOfJ8H1yzK1HInkC3pN/7kmun2xqavoHU6UPRioo3gEUdj5EZncC+uqF9dvGza//mu/k3t6QsT6G9PyMNupgaz9mfWgSjEwoSeskulRmB9TS5K0cC6Mo05Y/+V+zAuP8sXdsvHXMLesb6mZMTi0MrZL49k9LJVP38Fm/NcxT767tNtNBwd31uA4gZsRhgHifbf0CldNjAypQ7wWCQ9HFUjF3b9q3sDyanPHs9ymhJp9po91S57IDW0c15aNPBKBSJ730ZCT2HwjYES3fxYdRlfOynkAZrNAHI/rUS+qnj7/Yl6/h0/60gJ4BeyR7wG44UtWnKyuyv5l25rRTyVOTuZ6RgrkoV4ika/K7BKLPpnyTNR++XiW+VaxbIfF7PPsO1/8vAvigfG/i4sWLB+s81O0Gt1v8jfTMZmGNbY9RHqGd+1b02d/OZb2vAma3s6T1f/ycNxMp/5wly5bc+Mgj92+kzm2CO8XkVUu2786icxxm6A5ADytCezq0f1c/6nE7rfxoyhNkoJ+n0dv2BJEavGdq13bYE8KM6ThIPk50KTrtpBDszXuPnrWdXfAk4j1AWsMdLGhM9uTrr3Ny9uX9+/c7O+tl3uEk7LelKpPnNWUS56czTW/B+vOdFPSEOkWo1gQpdXEKLWhMRgeWXyf6YIWS+eOVnk5Cox31ejc3NDVMd1z77dlc5nwdaY5TqwZUfbEgH5O24LrkU0mCIdAbEBp3++ZVNfM2fINx7TvYn+J9AP2fpC4BlBKoCCQEqcwI6LtcviE46DSyYLqjcvZl/bWNGWt2k9v3MkYXz6CgcwWSdbhb4P1WIWh9kqh/QCh4K5pFY/HFfb338tBjiCrjnzoLIw3LOfqODdv5lhZoL1y0YVpuFnbuRZXl0IgymgUnXLnq+uqjzBl+9c2xzH+6JdM2aJRKJj+ZxATgteh1P82Q2QAToC4m6QMSTQL08gVaEZnx1Vm+gJ5zqSpOR5Xza+j4yLJli38sdYhAPlSLdKls6mlM3zTZyDzATKR3W52WJENGFgJ4qU6iMpj/ZFxB4B6nOnNGVdgVGrJu1VUbwdbEFPRaXsYbzUTiSPoOn3pRVu4vVVV9PyxTy9bSqp6AZZuNkolol7kKb/pZ06cyXXthSBTObXg3+ohDUzxTB4AwfK77en+yPJkEDyqRahs5mknmiI6IZl1T1xcZaBnpOujg7NMfXvywfM08ReelDkjvzZg86r1wHX34eUDV85YhWh8BfTU8Gyr6RCszEysXP7L4+TD+AbyRldWe3XuHmnrxOkjHHIO/WvHbaxu1tcuoo+WdffbZA+lUxwmeSCvasVm1/qK5Cs716/YA0Jut5d5Rb7mSDCcwkUehP6ifWf2LtOudtbPRvoyanT8g5RwmJ1qoTsRTvTdBvgSjfMMsgVgGeWKvcWmQwGxSUvuP8WPxpfELNhl+/4EFPm+7bVET9FmmXQXeXs5kvka+gTa4nrtK5UXvroSyeywqdRSz3Drq2tCQubdPZeoB7c2Kp0mNWAoFknZpomG47Mnqs/hp4t6sfxWRP6kdsOj88l4s282ghIc9BfBmgRIfaVagl0qkvkoz+gBrSbRyUcvcBTaipWgmlVDHwqhqvOo8pMdnZZGLv5Dcd9GRH77koSW3CUTa+5ALM2rvHFDTvIJFPa8AWU4NpXdwA5Us3pvMJyUUKAhGWkTDEUib/pCc643n8d8j3W5B1OhUqiV9mJLaJ5CzhinKVB/qi62BuzoeSf2qZ5RJy2NYf3WCiKD+rISbGBh2vkmpelQJAWbLAP26b94j3/n4RCYpPyX1LT9YgXSdxejBqpOB+Z/V4ZJlivRZja5yVnYuk+xXQeNmfs2KmTZt2htZceI+9NDip8MHep8HEBMtOOLZJGgxaiDKUJIX9Ud1ZFFTgvkDwwd4nBK/uHc0FRyvQZakb2ar1zsZd6PStBcYMZiOCD7hg8YZa/pAyoNNa3g37al4WqW/vbKKeVZXx6hUgAtgEN+xkDzthfXq0P6o39rZI07amfEvReK5iD1CayDCRdoWI9Wegi4cxnFeTDATyTQNly3+tGcr9bU/z+jhh2Tgw2zXn7wIFwYrm6QW7VOR+U8SzEYQ6a92RcDoyNqVdbJmZTKmzsWWWwxtZY+jDtTYr39n2+51149eSEc2PeXYSdm5w7Gi8As+szjbTH4n4dB7Vl9X/XMtXFteP4X0y803XS7CewLgI3CXF8JJ1G0hVi5TBXrhxy2mCHR7MqhMI80DKkno+CYgb0UgL8kxAs9SiZIZJmkz1BW7c/uaBC1fvlW0/B7966OAxmLyTEhZDSLKzS59Oe5o8ZAIqEgXL/O8PsSboLJD3a4afTMgA6RkKaIoqBGsI/HyB6AgpWqi0/HW6D40mPcbgrqZzNb99kKoEsqhPruAEs83+QWSHe8r+2NOXwAsZWUiERczEYsv0h/D1SXcqhI4QtHIbCrLPau+lQ7KX1a7zLWWWV5VVdUTe3btXcoI5xwWOulrT2DN8lYmOn/DyOrb2BcaO37P8fDtYp+NsP9uOoU68hXAtwUE+Y4P+o+E72pn8EZ0BWAbdnABmHEXXhreYmpaDQsHoUIx8xZZz1vbZ1AfJtUYSoUeO3XeMjBZatLz3mqg0YwYgjgoxjzrLfASKxy3jzpAaW44h3XZ53i3Av8D3m3L/Dt7DRipjmbMuHSulajlXPdCW/Sn180ePR9fuBdB/GWA1BsqkpaDeSPGDKatqfMTbabz4tgyqM7K30ESddAr+7tz3t2+m/uS1EOKzMbbyRMXLsqgOqItTn8Hlps3YfBwot5FKDQEo1rL3sy1WYRHW1WevTosmwxfqFOjXfm7CmvffXSS79wpE1w0lMUSDmMT2p+VkdSoXRnv/aR7Vlseyv+NVs4Wm09H8bob4PPgPv2M6W+g5/4BPfdxvEzRpT/GwqMjIrvpuRqvwD0j6xJ0yN8A5HcA8j+UlMkzPdexlGBHpp60+yswODleDVl6cYByL8dP4MP88dYyrK2dNiQEeK3orATtxofxWl0wFAHO5MkzmGjeNkH4xYcj9Ugj8udLStuRtN6SDnUIgE5GNuiNDekPYnZaCf0NvLM+HB9PViSvDVfENkuKxD0cFfyb6SwnaxEX9RxKc68h0pOioVlkLsJOS6uU902bNu0bgPuZpK3kXbCtgoc1rHsy/DqZMcHLvAE+HXuAJqnVbhwncDNANq2+H96dAN6XlM7EvWgwgfyydA4vhJdKGwV1lIZGRFf0567WEgjipKd+KRoJtVaPKIMJoVsGeD8OsgYKwPipfY/HemoBfTnXDFjU5n27D7jIB+xexfOV8DyvtuS6W4IGE2QMdNMny4EWdt0C+jFsQMH9L2+8YcTd2Kifn0lb7+H6zCpWXGIlws+wRW4FlEEheHm6hXmOK4sQTP/+7rj+3DG3b/wl96062lEdBgYCrNPe8pbqikzuv2DATCeRSKmzJYg3yi8Q7Gx/I23MmIy2x2cl7A1hah28rNMahJVN2MXfhRR/Lo7I+jQx/IS+YjGVpmGjXaVT8K3L188a9RM5kWPlrOk8ylXPtnrncuSfB/ezzzz7WM/1fxKCu96wfsUyohy0tJeHwD0jSR7p7WakrbOILNvvwgbdXvr8M6R3U6czz3zLEby9q+Xvi2A8IPJJ/bwA3COAiY4Sk9YIGJCOTSIk+yPkYkAZAIgHvKfoQxg6dOswvttxUu3QJwE0ZgAAQABJREFUMSj6DqTEVToJpXGdFhWiPBsa0niZ9N8WfoyV0pMzsTq/JbgLRJXxvn37dtFIN4flYz/OciHbmqBnobScr6fuEdRpmRN48gDg8XGVRfuooHk7nMtPMKf24fBjCCeyQII31i4n6xiVSZiepM1DxCsWHFXDjdF6Sh467CaPl3RCWt0waesscy7A4hXZZoKUJ7w+86dwgvWAspSGkLe5x3poAnUQuJOVeY/4HzQqIqymcQpmWX1QeankJt7ROpO6B/9QaV8TsQJ3SYqRt8SRt23aih39d7x9qbfBrHfiY2YR4L5LZpbY1Kuj03vWNysA05Z9Dqs5XcCpCXD/Vh8rc04E7ktDcFe1+JYuTqVz/4tRw/U0ToF7829frzgIWtGrvNtckxHG6z2HFUH7GTt8wx9pLL/Rfq1hZdpqJwfQThtLakEYevzBCDMfUATeTd7s9YAEnbhxAHB0Io9Wkwgg9XEz8TQh63jfp+FPRgJDgjF8KBk8Wy2kfDcTtD0BMR4A7VugfbQanNQtxRYBaLAKN3BIxZrMG1IVFUcKGJlEqkRC3evbuW8rL+UJMDoAi5bcO5RlOgUerRdAAgQpOhuY5L8edmmitd2JJ5w0jCHKMUqLTxdF357Npup1UkoQHXpfWjkMDny0oqLCtFcdkaofRqFm3AfM0IgB2snbef75QKpjErEJSNwIsBsrHiR/FX284uiEvA943/Ar74eeXaxup1m8h4mRF1QP6q9ApyK7vuAnkAbj1zqVjnHbq3xbC5HOH9dl44n/OqUX6NLutvKOD3D5i7ooorGKCh+rchlBmHvMiEQdgq5b/XD1DkWH3it1eD3rBUSzXBGAa/ADuqOfaJHKiJerhWErlS7qVHXek0FqAP2QRB0BPZWzx39vdePYOzb8buwd9RfTQ70VoJ/HhOl6pFMLsHeR2BMAfgITP2tPxnoaC6N3j51X/6Fh2IYvQB0j+qfy3Zx55jnjWXNyt4QaeHkMfKfLM1veiVdBWzA9aGiKatlGDcazNvmsvDsZlKd+ZQ3qKOU8DUBGp2rfhZXSTkBe37LpqIopLOrdpBaD/5esun50bTHpSokTgUspaTqMWwtYCCA1ococ6nxMVk4ArDTslSVL2ZndIUEdR+B7s10tkEomoTWT/Qof7pUAnnTppi4dZRE5t0JdMdjLWrsz6aZfMCJ4xcv4hwN+D9eeVfsUPLEifziLpMTjP8G856znLPcyme8hBTpNfhNLzO1tUZmRCiC61hHajNSJfprJM/tHMvdHGGD47/95xIgB2xWnYLJRl+0G6mkmhl23aRTfw3NNTY3PQ0OaY19g6e7Fgc8Ui63+MpRuwG6FOTfZalry3qbGRuj2d5NoIErmv6DqScrWuy0Qi0BeR1kynXnmmQ8nrMSFqPJqAUtN/qX4od21NjIn8TTamt8xijCrSknTKuBGvGKTj72W5/wok0lXkJck6af37dm3Q9TCu3zaiDZ8GzlNDU2PNjU2YQKHh0zf38dnZ+YAQsbl04TXzQ6DBw9OZZoyT7IrV4Z3uMuyc2GnFjV3rIVgTrop3Zd39A/mKkxnE73HZpn14IUASsVpgOTPDb5N3dNGF9x+YsOs6m81+v6lxLgI+l+PyaUmQxc4Tc7Xxty9ngVgdY4/o86WFQj3sZSbfiVLEj9DpzpRAjs/ucagObTQT9Nfc1tzRiz0s8yojG9OoyFDD3l1OdBG2pxLW4qKRQXUagKaynWmsCnVZlRj0SkuxgXDr5OOdVWjOrCg8zLfdUf5UnACR21ZFoNVvdLkzfTrrIfhf97XUEfpO3peFBEdZVL4nJeUNzWsrZ0mcL8OcBcD9eIOkOQK0/aCczVGrQDFwsv7JJLlV0RTew2lFZr1RbfVSMXvTjWmVsrprlvt0d+dZYoved7I5JB2Q4dlNdIxGmAuofBDgc8lVKfnovICbKsOtRM+Qgsn+9ZeP6aaTvZUevL1482GI9EkajBqPWP69GMSnv9pOoHLNVLRXAw56X229c1Hc1876VouXLp06WKNgqJRcBlqbNqx8Gjnhp2DH3g8EAxUPxpHvp2pY7PmWu7yessWYEcdXrHlBxPJyzPr54w6hXHKb/viOhmLJHV2yWLzIF5O8xnsg4sjA/+C8fM2/gmgl/UTMuJ+WkvILx81Ei/yN7p4Is+JBtzw/yLnVPI9riz1p60X3cUiy5pcftk1s89btz5x1lnTzutE7ocyuKu6bdHfCVYUncSUqY+RFKZNykEcwC7dbATumtMptg3lP+CiKYgjGg4IUARyRn0jqT5U39Tcvq5+7LwNv4jAfWldbUKTqJOYkOdbn53IWX9ifuFyZcI3rzUTZNXON2+kXEWxNLlqVDTlMpEM24lpU3j2vDGTzHxIBSmofoBnYs2sGqylAHuNJNB7a82A6m3qi7opqneQqu2/v6tebgBuNCMeOotF6j0IGh2U8h1pPkNSPDhvz/LrJqdEy7Ladvhniun4T0BOx/GKihGpM6Zhr0xl75N7AIZgMgNEb9v5wFuQrbyW4KPWptUZk0AtqGQBdLCgpPOZt5bSt/axoXRfFmCsYGXteQ8//PC6qG6tRW/lXmt8LQZ0WqYrJo2K72y6Vkg/IK8oTke0tKRB6TpKE+VdeFQ+soQxC5xCL4N6rrxKza8lTR2lLzW+6CoMLdMXPmt53hEtLeMftGsItRfNsBxj4cHk4iJrBvuwLsrxnY/C+vtm5houVqsxwF68GlZzXkl8iTyLwH8+k+0byiTBS0AQb30meS9EI/wL+pIlS5cuOTu8bwncbTv7dcTj/lSNXcP8Ff36pV8Y+tVtxpInYrTqHfmJaU+6ly5eHcSq2aOOx17q95hNVu/LyM7dT0Z5FXH0mOpwZLiE/fS7x9yx8ddmdAFf+a/6dCqopylLiACQIzvZWP+dSiarmVzUUKUr4K7eUeCeZNgHoKPClwxHdTWBSech2lWGXmqx0p3StB5kkodakIkhgTtx/GUUa1YgUi+jo2494QF3O/tCejrdAYSr0q3dLOJeZ9O1zFr55K1sGBG2fF7Kdak0lRq/JS1dTd8yv15xbQCGScX9c0bBHAaf34yKVOriDBvGIxfrg0m1KR4cWBOyNWET37GxgY/mTw6MWvQdjfKMHh9wnw40zjMrZZvSQyafcu6gFaHTOHxbNrAqYULNwGTtup3ZGeS+ad+e1D8weXwKgH66Kef+fdIr61ZrItUCuKPSjYnpoCmO9QqLkVhAHgHvlIXBxOr4eRv+unZ29U/5gj7KwIBJdyPFmxFplEc7R4G7cSXBhO0cVh7fb9v1+0yZoqOTodjCO8p+v+8S274S/3nvYqJSaTqbvz4U7JZt1kQlBe60H38XI7/16GVX4y9yPQC/S/fD5wJ3FdiVD8wMK5EqZFGzgZf3frZZux4VwbYSdfCQEYeYA69ODgCg+W8adcQEreTi25SzrFIEOX2nBuDJbDPfmDY9YfJ7cle+XyZ4A8s9wH0Kihd2X3KHGRkT18yHJ7KjozciayHG/09u2ye7DzZOSNgjUI+cPaDC+hQzv/ekErnfsRvVD9l68Ma1c0ae+cINI+QhlWEMOnrUUgb4uZbk7muylkzMkXtIoQvRwa/uo6WLAcDrWGxwjH8bx5qeS/jvMonoSIwkX2wOLeLlX1aL+yVdwliTD+ZRY+jXPmQA2TITDaVL1ZKiGTOhz9MOO1jOpf9EDT8qbaAcNXF8Kw6j3k7jmsHS/I8A+L/HjC8tYA6JLrW30zuW3p1Fp65Nx7QEEt6JU67vKT/p8wD4UvRpShaHmAOvSg5EC+z0XWD9MhJAUz3NnxIrLPWqRNzIRJLkdZ0GeNQ7xtoNLJoEBn0HOBjHRK9GFQqDsFidoBPRrSO2O2soXiKhvy/np7FgyeBi2cMSJomv96NwlnYZi7huxmz63lTO+c3qWdW3s6n4lbgnOHbVVeMqqbAf6u0RRBnqk9UKvGSii/83JkM/QpOs2VwMSouXvkmCB1MrJzNUVAlz2NpvoMqxLu60oGwmAyCt8yGUbo247tqZS8HlY0KrmQhwS8nc+HOQLTHS+rM0oP/pN6Dq99FqwhYZyYTtgVNOOeVOloq/BSvMjwPQpzPc00SpQL7jzkV89I0Pdq1oxXImd0sml/68diMifeHWcC2Kji9jDrw2ORCtM3jllVeqAKSRgnYzN2bQsmieaD5Nu4rhlMWqV6oQRzolSEW6e8B9BM797mbV8xvAIGEJnQgfMk6vPD9nAP7sQS85KP1yjNNX78s6+GbHj4znC4glpPqc51AsI9oj4zNZit3/oKRrnwKmnEIHMBuT/nV236Z/YBapdQBPJRz/b6Nv27B+KhO10aa+iZT9bbZOvIKOYrxcOBTLFcpTV2nLnTB0nWL5lXL/sZARg5Hi1ZEUm1cUrzMgHKU1R4ZXYox3zqnnDMva2ct4cbovgC0t70D/DUbLaVb23qyX+I+HH35gnTIjmOGXGldj4wS7svIlXz5OKDsXeur7Lfbnj+HJ70tI+TOJXwzIG7t8evokjWE92v3/Wrx08Y9UGA1F0oA2+O5Ug1MecYg58GrkQORbCHAeQv2GyPcQ4Gc++hLqG9nANwHBBuAjHCkhDxM1AvfT2DSEBbd3sufDmQhrEtxkxwM2ccLcnZVzJirBTPTn15qUifVsyLgRKb0Gv+zglfH+qXrIjt0Ih6Cph7fNnByx8cDFtz37lVg1dBg1OBd7W2PO24tc+BKS/XNw4UnY8MyARMPzg9nab82skV9monUBvUQC3XpxAqehCx0F1DKScFk9OLv+o9W/qv5G/bZFFxualE9JoTQQPjDr/EYHmUTmdHD4BEnCMEgLmkoJ5nUI3Hk3v9/XUPG+J5/84y4BrUAd29gsDcCMEvC2VpivgN/UYfHixVrcc+3UqdP28h5upNHpJbXGWPWCsndnvSKOwLKZB3k5H2chz1+VsRoMZeUnVnQvDjEHYg4EHIgWhvF9AfA2K7+NDCQhr5RgAJ4E+xzPMQAfeeQsJZMI3AMMcL7FCur/h7CmLIQn+v5VjgjEqZ9/hDxbMgNrQBI1Sj3AuxG7xBrchhoEV8IWQfWSJK/gZ5Hud8szkrJFgGXlKtvNWsfy7Nh9Wes9PN+6J1f5wpo5ox5ijnArVGxGEh+O1F8KGiqujSMybQpyXLrBei/Xt0Rmq6VK8aW+GMraH8IJFzNsYEDzFqnBefEaGpVSIWVotqpDZ7YW/zufELjL4ZWk6HDhgyljf8n5M0nxBvyhJaW7Q4YM/jiOr+TUTENHhf1SuFH5mbKk3+eF5b5W2VB5IXkI3I2ddRkXWuSJjE9iDrxaOCCz1bAukuAH8xkFcNq5Cm5HBJNgZkUeOYvNRqAefausHP4KE2hXgR9KLoQ3EjhHraA19AJIY07YtEcurE0YNXTDTpB7VfiwGBwUpsm1sUwfE6TzGrOW9PZGd6+H/RL20P4p59S+Ceu/oOnLAPyg0GFbMfkbusI/Rop3SYXwec3mDw0bbu7PLRlXS1SjFJJQcA6zh1DBk6BGQX9V3+JCoJoJRhKO9UtWtK0goc0Sd2OnWFwmZvl5WiCPWiWNuuY/UcEdSY/+Znp0vXAx2Oj3AX4HK5y1dNmfWLZ08c+UvxoLIO+R1rQQ3TvIIeRfHfbgpVGCLlP8D95EaUlfLbEN7+BD8W1QNa/T/9c87zpqA3lXzKgjRmItF5gqly7QSfBSK92SttPGD3yk+umIAD0Pv1cjqk+dOv1TTPR+RPp8wFD3AiwpyCjE+CED3exYbm/lZ7OQKLt2jr9Sym2C8EEnpbQZwa/SKSXCIot3Edsl3XNH0n2Ka5TnJeerHJWHLR81jAAmN2QSMuW83boJ+bkO2gNaFa/DcAAzOkxRECHanYeXNZZqGOdaHEtTzzDRiU7L0dJmBj6PK3uGXvneuaC4Dk8F7hq2oa7ZXFt79mcA8l+S9QBefiPHSjUqgP9+2P4xAP0fyrCwsXRYQPdGMJO6KoJ6qLHxk0Mu3SkpqHGYvMJFQmFeJeVxKEU2HwOdu9nhCmAX7XJkpnqXGl6tvFO9Sg0H8E+dZsRXkG20AekSwKaAgIAe296KMLb9kUce0XdY1DoT3rNcoRhwr62ddh2Q90VBHiAutWqrC4tCgB/s+MYF9zM4Rktci7kjgLMaF79KrslYjfQ7wyelUjqNGuS0TcFDR6++Q14DO5cnEigEyarHYf/XC1+4YdK38U/XBMAbFwZBMR3/7QrA5182xYzj1z9kZMelNo9heMLqVPz0eKY3b/64tKvIwdayZQ8+OA1fOOT7CXT78jWegdM3J1OJzz/wwOK95Bq5MzaNpbRSyha7EIg1gmg1YzqtvkOGDKlkj9EUIxCpohLptMPGIGltSM6GYV7jY489tof74qX5Ka8wP6N6CsF+v7qq1ZIOnZsAjSMHb4HtdJ3hXWv8w8qqj94/XjFTdPLaeNx8cPBMakG5iW4scIP8auCdadfRmwzfe3RpvrXoop1jBErN4iMUSWI1bQjBFIDXpfFFUgqOSC8e5I+Omvdo8os6jnZosvTO+ZlRNns3aJeWm3mnGkW0Ce7KT7hEPBtfOhN1PUV/CBS8DhXKHrxlVnFE2AY8yxMwDiKviIudyTPoGNihWh2QfVzCazyebJ608BFUSnYlRW6Rcf5l40HuQ+wodCuMFjH0XOHQpUWCNi7xH44Zk1ZMOP7FqGh+GU2etBG/w9tR+jPOOGMkbt7vR6E1irw/SN6/UuJQClDDataAO8y4TBFUvrICkA5QCSHJjMAF8HhGe2wfZ01kimcMVFbzmgeTZCBaxQquw4Zo02n5e+jst9OK64m7hmb7f57n/N22cy/wQUZ+XAzlKvcQB/o8eLXknT5+6ltN+5uI+uBolK/j4dlo+DUM/gymoffnuoJXLt7x3pH4fHs3A+rtwM1GMGAtX+W/Pdv9O8siVh5qvGuvTZmXX4Y/tE1ja05ZKTZTuZfV6ueFq9VblZxbLTJQyfLJ45DM8+pw6DeXeLweE9r7HiPw9Ridn83A/2d0zoMluJGyzfL59rVXrHHdjBn0d3FZcLVWh2qxUj0bXuMd8w8yZ9yFLh0i2swnpK+nD9rPEGhlfz/Pu27svI0L5Np5RsEq2o4IKqXnbZYXH5SlnwLrTPHtYPgPtpc0Y6xPDeN+tkjDpoWFS6eQ3S+ZPJFUrZfe3gvnceshTG8x9Ns47cxp18t1LOC+XLHVSAGHgyK1t/YRajIZyXwyfDsd1p0CF4/D+X8NDsX70YBNBXkWVFSwJJZEnwMnoSykjtXEkTzF+9gFW/+FRdGjjPP+17O9JwRYAkV+hgdcq4PT75AIem/8pHrJd4raECWd9o5Fhjv9oaUPn0IbPA72jOKDqGQ9hqlXnndcBefi036+KdJ+3jFN4+Vw9Wv/m9HfY4grDzY1JR5/giXuLXgnGjrVNlVeOUNrbUr5064G0K60AnMgHX5fx/HYVcxOoYvQLmpUWfN4+ZBlLzDTFmyc96Iz1f8X8A+zJowhpuXjY/FyOJg5LORt0PDyWXVwAjJTtvnm4fx6xaYOclKYf6+t5KCOXS4IcrSBE8niLhZCDkYF2y64Kx/QSPQpby3MmoT+N2kvCjxg5hqcLVbKq6e9jJdD4/01VMpeEZCW8f8ADGR8e7woMtY0BQjQEZXBV9BRrA6e01y0Y42KFZNKfeHqGQS4mpm+8Mwzz7774Ycf/GckhXdQdFuPo8ZoL3l4ycNhJKmU9OtxcG/tI8T3+REMXM5tbGh8O4x7M9qDw7QZhD6awLbY076V4mdUl4C/rdU44nnQmNl/2xnA+zhJv6yX/RAf49OMshaxBuxXrC1YBbgbHgg0o/PWsu0N9wp4J2spQxJL0SdjpXBeJp15O1U+EfGsSu1Pg2xGPoaHHfIu4llUScM7kCfg3Ynkd6Kfzf4Hm0Q/U1s7jbkc6xcA3oshv4x57kHmnWjI66NVDa7HQfepNJTTGxub2JjPjGIAYy8BWzAawViQ/t9WOzPNSp8qd0wrM4CvsTdaTT9B1z+Lh3cqX4KJGJlIujn3cM/1Ogfwwly9K7aWJN8NyjzceawtgM/XUzulIfd/h857bGg8UQx+5fGImo48deDAaib61qjc0bvW71w7dNQqTk+DB4E0pQe9KEBzAKiePShPVv5m/k6bJ8UwqM3E0QNelnHqoG+kEI+i50UcpRv1kVjH4Yn9c4D75TKBosF2FYDECuntLH5yYNXTEmu+cUY8oE5vtn33Mtr5O6lvjRq7RjDhL2jkIfgYr5mSQfYHM0zafxmeie0E8sIsmf+s8whfBYgFZrnuybyjk9kychauXb+f85Pf0yIyAVTIY5Vr8ghz7A0HB9ok2ZnOSEC/ffP2syzHuow+8HwqNVy805oW2o7oLY13AVfzdd7PO24FzTjgneOeBByeRBnXTZ06/bs09e/At/UHk3fiBXzRpKThzbQzpr0JSL6UN3gB3+BE3rd5f2pTCrx7czR/wtZk+rPoRkELE08VaEebzYkGhC3aRs7NGQne5K+2WpA+TNPuISxjp+P4ZvOW9iLTBsyetRxHYCIBuCePBdz1rlXJoksWD6jaMABvIunWMG4wNvFrZ/urMlHLEXiVXJv2qC/PM709SAuoLDHL1gGjxEyAFe1+o4bU2fz0omgvDIod56L+/Qd+ViSoAUcSXIkkFUaPgL2glRc+7p7zkG4tBDMfIVLnyQz7v400/SdW2/0HKqkaAZMkEc0/0Oj1NYp/mpwxv5Cf4k30a4tY89zED9OG+TDe9j2VEXagE/Hd9jk87vwJif4aaExF9JWBz23RVvJ9dTokygMYvJu+bevLP6Z1/R7p7QPob1k8wjY4BCbOCnknq4VSeBfxlSYs2TXkffAOAt7hDSnk3ThsrecS5U/Qc6X4G7bP4J2VXMvOJRBvQnWG9g2eRIf9TZb0yRf7jQA78w+4JIRk/WANamfGg8X+M07DNIL0dqKsMj5iaBfikb4d46UxoNodQXtlPoOb0TKg4EExf5WfgswVjQ18WyaSqqt4fN7J5w3AmOTbLDo/XbuuUXb03kxGRfxRGqKxuNH3mxT/nhnPm14Q1FqnKmCOqDYnlY9+AtMexQvKOyBAVl66QwMufomokrqgzgKyJOI8Qfhk2CJwVoCRnWWM3AsYMKRinww/Ik1E5vfuzBdY2kln6SmtlILYUi+FHyETQrXj2J/yK2ge/wC4Cpy0UxGYYcRO0WZAyQCMXl7wK8it06dBXgKtQNqRpKuCPXx1HMPMzV1shsA2eWcfy3Nf9OqD6nRp5UmoEU9+1Mb56+HdAlr0b9lK8RKtFId3WQFXWFxL3pWHiug9BLwzPMnzjr2Fuf196PrutGnTxkbvuSc6yELeYEXyXlazq039B21qUNim5IF1v6AQtq18x6X6tPej3uQlHm5DB892fKDw1q1qRwo6mm+JEY0xkVRnwi96biIV8ycAW2s7FmFmW8pI9VOYNqqrjo2V6dvo2N9BHU2U8FspjN7euXhiJk+hdgFzccYUe8KgSlMXNFdPs/fsCjn4qkrZKX7JBIwlQ6RNK03ltI90j2OIKmTAgddh9mz1rH+ZSuKXvxSGdxrgw/JNWY7nr5OUoBfH0dDRyT8JPl6ZriXou74x/azpU1VOuN9pKfXqZPFdTiazR1fqJeU09cypV/I9/Q6J/T9RKRyOxUEEThHoqk49Ua+oHK3gtflQcO/qW4DDRUxt3wdYoDIKRkz6oHTe0yEESDPikWljbe20D6Mj+T2d0UyOfQ3vgo2b9fHpF9WpJ0hVWXneqUA6nCsZNP/2rKCNGouo7gT5CPDkc4WR4K3A6g8YBR4hYOebEfKpTYlGHTvLG6MfJz0A7+T3BOZaE6HKMwqjw44g6mij+x0dBZUB5rDxeGSeSifZDDSiugaZOV/DCcyVIbhrsWKQvqOSgueiLyFakW3u3rVr5ye49pFOnSkLjSGHJR/uWM5esavR++TejP/rPWl/tTScA1KOOyDppHA0xpJ4+rFAsu9xsMf/jYB+HZsKP6UqhYbUzfil+22FUpjVMg+fl27SY6WyBtF9s+mZDT0to5Z0Lc+O2u1lCNYk81gIcUwoXZohVUk59WDk8OM2q2El2Zld5R37+9RjsoaVCJ36CAWeETj1IHXNitKHKksKvOZlsgztx9JafoQW5LPcN2qHngZ5lRdJwrzvN1RW9P0pqyRvwVdQDX2RmNf7eJfN5OS1kAnJRai7rhCHw3Za9g4yAjx4M7wiWQGwJz6kb43vRKu99Q2qzEIA5rJzIfyGN+/YsWNXYQ4FkrxujzLxAiGz6HIZ20vHbdwEc15fkH8esPQdRWpD1E+foR18mPevqGoDpWCAwB1WyTOt92OKvj6a1wPgWXFqQNvQPmHBhufGzq//yphh9RdjRXU+NF6zM+19Z1fa+zuLjNKYUTraTg8pX2CvNAhwtoQ4QxjH7gjK22Y0IS7fP2be+pUqZMY9pZXZFYBXeSawa8p62PXPsFfPv6zoeSeOCXrsLC/nKPzKLDzjjHNH6qVL9dGJvLo9SQFAWbLRZSxzL1L71fmPMGgUZf/wu1gxfSwuSto0liMsA3HmYlZ5O3WpFK9Vpy7mX1RylZP/oKdOvZz3/Rs5jdJHrY5eNPLrEVqKIjiIJJocASyjTWzs/e/SQc7WI9Ul7OyDmF38G/EHk9BhXtYXuL9T0iwddJZfiuyLBtgOSNF3a8CX44ZoFBqpT6LjyejDAcsRlN1Bdgc+ZtRhRgghYK8PY+QxCLVv3lwSFe1shMbPKY7qyqH4NsA0AvEdgTvywa/SmcZZvJfGiJfKUyECeb+OkU8dqg/cF9TcufkfNXfUf2fcvPprsBg9H+Iu2d3kf21nk/coqpIdbMdnCez7Ji1t6SHaoS0P9qUzxVDS6h/5hWcDEH87Y7L5imFoLFGAzjO31SKKvKmhFgLFEyZ6MATrakXBRtuR8MZLOi3hZO7U0FSNrreBfGGjYeh8HTYxiwCo4/kI2WS97B9hkW+k6GiaXMQ+2kNlw1oEx52Fhc8doaO3bgf5At45SGtz+fy/z4hinDp3aiAJTB16uQCsaKYUGTHiXZruMQkK3U4dDMhLki8HyEfSLKuz+2bT2QWMGM6BNfq2jOqhSDpLiRYCfGCfroRaGFeYQf/+mcOQV4aHAF/qu4lMJMH6oAzagDBIZcjazZTFiAiLIPsbEhhpm50Bd3Z6S2jznj+kKpMfZJX37oK2VlgdA/ICdn7NNtxWpAl3bFxTM7/+XqT7/3Rt+51ood+5L+1/ckej9zu8PeJqGLCvdBJVgL32U6UW6lhEr47N+MZ10YGEGSR3tX2alf2lcXfU/8Ukvqn0PLsE8DRkKlIX5OFYS2h8TTLLg4xOVy7iAg1IE0KylEBXnLgglaiUdGl81OgYxTuYx8JGA7h/nkrPR6I7DJq1Q5Qaf6+gswgeSWWjCVg5vb66qaHp60ojabS7eB3xjmMVI4e7mKP4LB90QiMKijajiyLoPuhR1EHSOQrkwSz71kJ1TV30bXSOyrw0u3f33i/CHyO5k5XAQ/wpa6C56ptVpwWoBPbpuo5ANyqM54cRsVMSPHlEuLA3stIJNxAxC5n0fNq0aedAxB18R+ztbFwQFP0NUQdNjPrghcNm3kt927vm/vvvfzlqa1Ed2joWbsknadmfOSW5FOle8dmpafv4+ZsekirHqXQupqC3NeS863Y0+j9iknalKjaw0nFR5+DO0Ej2upUFBGRCrvOo7pw2D+EDHczELq4TkpX0GHir/Oa4+RtuVuzOSO9K1yWAV7m1tctMHryMp6DwcV6MZC5JGOUIasgy+RLwXAm5tyjT7gSeYomOGo2OU2un3o75wX9L4gjVCgLMrvK2WFLKFU8NmRXRtDHHuR5p9L+UsXhdDmm0kMiId+eee+7hfAs/RGp/v4BFHzTHcqodCovttnNIB+R9qWuSgNO3QuMAtnBboU6+VCnX0AnPTTom6i/nu0IPbWBA0mHZwV0FQn+kPslwaWzgoUFtWAXLRNIQwITkMO4MJLqelFq3UO6Re4icMfsjb4v2ILv+HOD+JiauMYdMHB5+R0WDu+hUIK2L5P54IutcRdvdFLU1lVNKkESv/VenIt0LXPP7r5LJmFvWN2hydjyuA2qGbXif7bpv5au5BMn+Dlwe/BX/MVncBjts+4em1o4cjqljliMkYaPOzU/X0T1EBGdgyknhFye3J+t/rmbrho8SzzKuFaBH56WGUl9Qa/mrEZjCscb4IKvkFhqQKN0nTWt5R/dk6pTgJ/8VX8Z/hQGfzr68KNPOHqNydZRKg85npupM+9LHYYZWnc27jXTm42rxrBzvrkWW5jJDR5XEfjqNDCPfQL/hbvSht0ZHa3m0eS/iHROGgzF2ZBLafbs6cEJpQ/E2SzjgQWs0dwvvaJ8C+RTSI/5svAsAmNVRfQ+gqp0b6lAFeKx2HpNwEvcjvR8N4HUXfyJKstCuDec30dWeD+2s4K2N5kfEL8NHvvH3o63+Dm1dJtEl+52iiARW+s8yvXIurkS2Sh2Ia/AmyjoKfEO9mXg97SHqyIp9T6KNbfjIO5P9C5L7JdC/MqRfgNpaG4jqXdJR1bbmWu7yepZQLzRttlneq2YPHeFayTeABmcypDuDzI9Dlz4QqdxCZ2vJeZj6avWPCrJ5xGOkHM5Yu9PCEPshBP5vjJ1Xf5+eR35zdN6ZoA+3q0G23qanzXiZewGGp+CzwK5cUrzok/mXJpVgiP3J2tppn9ZNXmLZpUvl217Qx6dyFYcXeGsBuOteWcBdHw5NUp2meBgM8TTMK/wX3I/iNWtkpOlKMODOMDeFDPMl3u04MtM77rLkGH5wWc2nMGHIxshlB3dJoQFPIv4V8iw6389X8bhsvKN9avvHHE64jmUK6XOoN6LFUKXwzvhc0QtE+Ls+BHdRWY5vVdm2FYwEz8PtdPBGug7VJxb1yAMtLIxMJKluSTbw4jOvR9+NLxfBZpGTwB3JfRTgflcI7tptTXXNl9kWweF95RuAeza7AqHkSr7PleF3WlZwV3nQ7yPdZ7XhtgpeGkzQgk8BvePnbd1UM6/+gXHzNv532m0833b8s7HEmcMk7feYMH2cidp1uBLeg6/iRn77mnL+ZlQ8zyD938XavYua3IYLygXuoreUIZDitxpgqBhpq0emh78dKeAHvCRjisf9Uhp3q/mHNw3I0/iQmv0voELYt/ShpbdI0okknvYSl+OZPlh+puOaOnX65+hs5oSSezmkK7UXMxLiwyFrNXOpdVtv55IANDFK3EiSErCRoAxAYFsGqLCTZwP19Meg63p1al3hc5jW5LFty8u3M3a9IJTcxc8utUN4JElS8C1LPPFNwbzy6Gguwj+KqqB3R9CFOtFy8M4UqnqR2XuXLXt4CXl/T22Uo0DLFMixzaCOVLyWeTAWRZeHEZVhV3gUVLjNUs0DaBP59tampkazyCmKHq5DCS5tOXNDFclYmhuldjrBJK7vyETS8OL0008fxNmdgPtpMqrgvt5hsfmad0daWd2tJOX7GHGuCNua8iqm3kTrXIBb2NQbKV46clvStjXZMNGjE/COuO1lmZo+E/6sNbNqBtkJ/3An5/UnZWUOt/Fezt7LkuBt1Qvr8+sO9EmzB6ujOYHOUbY/VbGM3J+i9TMtmzZAvnPPzp+x2OkeeK6YYnA5mayFUHIvLD3x1+lM5BCp2xeZqAxCfsIJE66ZIOtnVDPAoqvg/v/bOxM4uaoq/9d7VdXdCUnYQoAQkCCiozgL4i6QdBJc0MENt/GPK4r7uI3/0VEjCIKjfhxnRtRxVFRc/zoqwyIk6U5AkEEHlYkoKjAQSAh79nRX1ft/f+fd+/pVd1XXe1XVnYbUg8579d6955577rm/e+65m+Qjq0UWFL1kOrFFltWhPeR1K2tPb2Hg8Rp66JczCnqx7jSg17Hz5u2kvVOyCG2eIwfMxuAupehU5qrp7AIgUsEbKNvlPPgZFfqW61LD6ECuwOrZj2k8xYG7ZNe+AeCsdOSA6JAdO5Ka7CCK7LbxtwFZ/RpZXYXshvi7yn7zXt8lO/RUqzfHZBfTzJW/cYG1IntU5/0iqA8sf9byI/Qd0MkiNy30MuDDmjsNvhbBr6Jniatw4y/TLV5qEWIrnQALCBJEG5n2vFOExm8hYDPYOMlJLWnuK46EbUbcMPHx9/WV+j6H10arVNXE6i8rJokJreOQy+d2+H4t4P5Lp2v61gaTuXOVRKCAIhukBfAB90jb+g4tiadf+kCPuuD2B4745zv+tAj//aIL7vz5oy7Y+MvFX7rrdx7cYThuJCCmXSN9vE7uWYXZMg1ZHQCBzXLBB3Y2a2huVcuKISW/dDcvA3kUloN0C//E7JXXiri35LuZUJoWFVSyimzlImdAgsPauVB5a9eykgJaIQpg+DPrBjC/GRD/Gn66M9nI+tmlvuIJIyO7n0P9eNHWrQ+9RPeBWf0nF6vhCXw/BfD6OxT8MnjZIp5Ey1XmThVEch4tl8oD1Mi3qnJTeWpODmnRtHpWw2hhaBhPJ9Mfgq5+d9IwSnayaiU2tYkCDu3DcGOlOvpFCuZNeDSei6H5rF27y4O7R3efApK8AJx7Xh+/9R7leV5Urb0Vj8pFDGDeAZ2CCDmA6Vh2AJam+D6uWo7eqMxKPwU+em52OdnWZNVSx58rnrjaawRpqKQHTj6mX5LTJH9lyz7H6KkuK2HqsxWUnnUB+PtS5w41kI5fZf+X+cPwY+Hpb92kB/aU/zSl92rX2CutrI29lT/8ltF99syJXg+4/4z46mFzo0+wZ69IAL102E2/XInjCMDXn4Afaz/0f/bbfRPL1kiQoW6xH0u8W9RiS0M08dkuezkN8jdQsLKAgnfl7iVjlLDki4AQuzoXgtevHo7PV6WS2ABVN9NC0W2wacUzVyyslGuXuHnuvuLll6GsRISjyielB5l2YLeswhD9PjA/tGbNmjvz8K88b958/1OI+3+g/HIs2QMEogI96GStNBOTFEjQH4fOKKD4fPi6gkDW0HHPpIRedstPXP5X1bB6CWb2oVilnYB70iia7KrVe/FRXYrK/QA+rwGckq7uxAw1fgOPR9MPeinq+3qa2sd0RXY03gCQdkndQCkvW7169c2tdFONqNZ60BAuwx78D/Rjblt1JwZ3tMtmde2mpH6PbXgXNEc0AX28FOQT0XtUchb9yM+vWbvmP1wYhdWKdatTy5cvP4qDR9fC1yL4yqtb6nnLaNiFmf4ilGox3a3PO1nn1QdtZ1Km3twvnzvgfgl8Yjiv1N+eBvfx4t2jv9u1PpsxbdsXYK0UhodXfxc/+VEEPJeKaPOsee5mekV0TAU9i0r0pSVLlu0izR95S0nWZjMm87yX1cWfWTSVcuUsdrTTIiZ1ODVPf0JlyUDb/KnwrSmV2tviJyjp51HS1ePiyvKdnP7KQgGFto3CiKuFZtcCDhdiyX6IvSsY4AmQUc6FImkmyJ8aCSxRKlNF+9UI4GXFZ2pEXbiK9paphLXz6Q0ciuzyAkOaIwMC+NGOiVsBrG8zCe2La9asjheCjIW0yo5wml98k+wIENEo/JH7eYODg98GwD5Irt8EGHnZqYGcvBwI0ODSSldtgb2IXtbL+P7xVrrpj5ukkT6OsvNHYE5q9U9I1zXKei93Hpz/M8p6DStRt5J+lkY5XW8svBY7qU7Xdtfmo/UH2BCGnCl5pOIHiaPCFkwG9eSeh2614+KMwb1a3Ur/7U1DQ6ticKeuUF/SvE8Qzd74Ik8RZZaPt9oUgT1Z/gmf6ztRdv3spHIr/vhLCqjpXdaa44n9G0D+ct6Rr5X667jAPZgBnK/CI/ANtJq91doGTZvuCXhQ+Wq/wlH8iaF1Q9/zmUJBrTJz1ytfGf3dB0vfffklJ97oo3im+/t/+fhh0up3IN8uUFUd2G2q1sLBdRzG4mWSZqTBs+ctQnacfF88RxvR8V+7OmAWoNJB/mswN8+hR7HGpyueUuePepn5uw+Wvnv+THbpowzh9600Hp8k3/t00EAq7Rq6KSv+17iOVmgSwiSyEz/G7yDbSuNafiPxNHis957XNP8TnjGkbNqi6Vet9i+49N7jtxyYEDj7C592xJjXi+DmB6RjWynDVb7Gx+VP8ZW8jAdueXqYHtzVCziDuv5N0VG94a/jui5aj7Qrj3Az5/22226rqbu5cePG2pOfcvya7du3H43V9UQqiwpWBZFXMZqlLXpyIVRwS8xhVsnyxYuP/AXp37Zy5RINWOn7ZJW8GV17r4bq0ksvra5YsWJhVI2+QKU7BB953u6kTyMGKLjB5/ulKKi+cXjt8HX6qHRgmV7PsKxJ8ZuX5+i3v/2t4gSS+6pVqyq33XbrVYsXH3k7RtIKKvyAq0y55a66KJCBxhzYugm617u0RKspny5PNcDySYDl5xS/zYZRacjdoXN7Ryjj8+fMnfMWVijezHsvO8t/J7IjrqdVoyyuX7z4yA3ITn5wLWJSmeeVHYIThwbOh+D9vvbW/731d8jOv7OP/h8Bv+SqeeGjleoZOM3lKsoLgOpt0XOoXTJrVv8b161bNwLdvpe97GXSK9WFLH+eJX9PynnxkYtX4PYxy5sehumbD5Tx7tO3mV/EyYM/8foMZAKRtw0Nr/ma0pTcPv/5z/fAXcJocOVV2gYkGr/y+8bQtRvp6yu/ncUfV6J8Unr9dbNApDRaoKEdKA/Bs/1VBkKfrBadwk8UqjGXk761rWsVYnS0+g4Gg3SSjH6KZt6rwqwK+R93AlDvGVq7+s1UOFtlJ+uDZxGWTJoCZsYEI8ld4KrwuH2+jqjfTrq7ASq9swxkpGXBBO48yIqXv2aQZ9MZJ9uGpFJ5knP3fZTLwfCgQba8+paAO+V7Dz201zM19kMXX3zxDjVk4sXJTuE6lp1opWVHxj9M/gVGkp3ANt8lFxetGvlnMKNwsousA2gm6JDfrZFzVOcTDj3OlxShNRNL0wVl9n/RLR7SLp2jpCfdyvpXlzJxxxjRFEnpQdxTmJCHsYAtnxBr5qmQIibjSGN51L7oPWuG13xZLwXu5C9/uSjyXnLlrXC5xOJBXvtBoF9vQvl+qX0iDOI7r5BpXqRsbgfK4mKMC3b3W/oEFT4VNo+VkNAEQAwkORDjrzBiT3cfNFiclx7KyQrBWnUbNs+bNXdftARQAhRX+Rz57tzSQMXzhQjn46LcJlBZRY4rV+FJyPMI0Rq/CZXe+Ys0Ta8oA46QK7xQcanQ5j7wYTLezXIH3Dcw60Xut4sUDx5sthaPAq2uXmnZASSf0pRfgRqXZtfnT886QLJqCk/X6t1mzALwlghymk+UQ+TMypMeYSUrmR/rudmYhFuoVAfYzdLP8p7MH6ZwQucs4ScJYzo1yff0J3NrWpJB8AGMls/pYw/c0yJq/jylAK9kvUVJxbmtWAtfx2KGm7FoBJJqeTtVFCXhLylNkUZE2wxz4HDw74Psy56usD5ghnsovhWuiCsF63shIGPz1DPETQcxtwyDbCNYHm9jdsI39DEFUOmwXX1O55sTX8+jZ3uJs74kp3xyB2tcnT4sjMI/E6M0TKIxoaKq4ilts7Cj8E2UhTaNyutqUBLyt6pndg/jc69bvXb1lUrP01eAqboS/kmAZXXn4PLYCC+SQT65ST6SHWMPXI+m/3SMHpCdbnWyGxiITxgKasFCdNf2eiG5ujCK1OxSWBv1jIJb+/v7bSbR+HnszeJmec92xfvATDxF0tqrLLE6DqOeo21RQqvysaGh1Z8URdWfnuWeTbZTDvBigwpjq01XrVt1I7MeXgcG36nKy6eugzxWcgh9+SKfiuF4AcqwnyqslCKbSMy6NiudBuI47LYXunjaKiGPvKzLHENp9A9yl4iO+BA/WXnpJJzS8T0FgBmgqj6Apac85LZEhW0qMyzLYx1PDQHeuxrmzt3vFNqR5Wb5xw1KZrCCvnXJmQY3Apa8Y3h41SreCdyTBVOOhym70cCrjAKmN/6GMrSGmd9FnnPLDi+NrPE542RXx/tRRx1ldPFjHQH0z5a8ubLqmwKHsvop2g1yzyiy38Ndz51e6A5jMLEFb83WuAaqU/oN4iszmslE57d6Lr2plQoznfVH6T3cr6wK1Gk+Nc3KzlZl4sM1VFrNEHggBfKd0k/iY/NYngD5qFwqPRer5jx9zAHygbfeaSBOc9a7KqiBfpLQ5A+qa1pUwgZDta/hlvlHBfdgO3nU7n51QFXAAmYaZfQ98qEEMEdzAJVMQ8K7uEd7Dp0l6n9at9k1XkrlFTSymsGTz3qP+TKrjbI8F7fMd5XAdIK7y9DYiWVB9Rvo693mqpEk8l+RVraiFF52opFu8FIHWkeLpDcCeOSdDtMqVSYbiGiwwQdUnfPPnd7J//7QOMg1PJ2SyxK/ZvKOCnezueIXFAG3YJ/Tryzxe2GQwHQBvIStwSXdGbxkKmMQnYnSaKl9iXfdtGit5Ycm5KtMlS2+meld71DCUg54mDTPgLD4KbCo4wgCnqI6xh+zN3JZ7xWNNeCOYspE7WOiJ3D3DYd+T+NlC1UsvaAgoNqqigN45gYqVW4cAYdrpkcj/m+55RaT7eCJg0+nuAcdGAhksgMVKx5pGArM5b+M1aefUjqS3Z7oknuARG/+hxxc4fA2ny/e1AfvjsQdBoc3kpuTj5UHxXKoS0cHxmSTm4oFLVVbirBZ2WluoEn1vAkf418nq5DhSf73faxMaXvGB+z2b9IjP/R8wmAhM5DOFH32xBnh1o18dZvdGUtvuoWVLHXHZfE9NPqddMDUUncT5L3yaXMyHbwh7f/okiXLn6ZSqNs4qUGxJF3lSm0Q/p6oRgI6eax3uWZ0rqw6zZ8GHG5To+It6QZJTvkrgMrAY8uWLdqz/+eSCXgjOdn7PAwQ9WAG72Y3iJP0fKiCz8MKPUgyIK08srMxC3pfDxSj4BM6KUxd8j3UMFoWvUEA1l7i8pPbF+988JL2AvIzIMLQNfr6h96J6eyTnvQC5Boe4j6obLwuu1dNblJxNqYjnR34ae5WKKfnucu3QQqehgDeeG8QpuuvqHPCJtUlpBB8YOnS5acqESerbHLpOlcPP4LTDfB1e8awr/uX0fr3ySqgILsJ8r4k7ABvVlBybmb1ozr6TJagQMMHSN9RHj/tSt3dFbIk4U29izwgpcUtxKtdzqZN5l4A5CVnX1HSSU7Xs4GFA8q1lqhcWWZWZmIBA9GFjqL9KasJFd33fE444YSDILtMFZO/PD0fcUNbL7YKF+JSukqcddOPnCmn9YFSZVa9DsZuV746uPabNWtW3/j4vucze/bIvqhJGuDHB232O3afBYUH0FQDeD8W0ixCxvfKbCyDWuEw7zrKGLcbwUKseC1kpELVtNL4Ua7+5qmP3eDjYUtj2gFekkqDrKYNMn9upQMEAa98tt27GBscrYzKVfOcrVu3ny7CAK5Ae0LefUXjoIXHAmhPdaqdquQt2TLrXdueglUXegvUpdcy8lQGwGI0ZGIN4g0avDSgEmjnuOL2IJhNXA241V1+xkY5LB+PyaVFbWocJ8i4LlL9Dy1W0wD5nfTpvq5Pe8o1k2YrZWhvoMW60enpGPClAzd+jhtHviHs2chlgnGxa9cuK5tSaeQAZKcTkxQ4e9kQ1sqzUHgQ+pvFht/LXc/duKC/0KVhvYVu0MxAgyQD2/IBY+txrHs9V3FUn2SMZYi/1wfJUwG7KiwVkrekseQ/hqfms7LeuFRw3QP5eNC1oj2sqUVvO+GEZx+qRHy3WM/+8u4Z+DiOd49m+F6f8sjIrHeA4Jr+/pL2bel6RRPNNq4ELADdm+GPI9MMU9ogpfLpG2/BJ4vC2Mn+6RhcWuKvNLNWQoWVbxtgCy5hO4QbxJgvDz3vuWulJS19BUcN4JGh78/kYovcqQGbIPhkimQQHIwA5hm2q1nIevmwuGfoIWgP8q5c3o0kMMW3fxj5RnXMQ5WdtzFOVMaJHo69nvzJGQlMpMHdFwavWrJk8O2K4dyO7fAxeYKPsK95wKvrWU+DPIOR76cUvya3CFd3QR56bCuqjZ+OLRYr2vjJehHckvyjzMkUPHbUO87cM5rflgqjeE2vePaHrbajgl4eL+4qyC/dzQHkpsln/QAAbAadNsRgaiCSrdL5gTUaTHwMdVYoDbUBuc2VjqLjXeOhfGetgLbfDeC3i664No8qqPFXTy9rvqYwnORj+cC/fYuNrWTPVz1bEScP7WCm6bjLN2Ss9ZXxocZRIRLdHBe80U/jj/bxrp07d+5QAE+zUeC8726/fds+zLqSD15+/rzRfXjxqL92CGiPfY3PMDej8OHBEwafAp2unDLmmXuk3vMo0ZTIwIO87uzb/U52LfyRwBWQkJVkmt6lhNnDwnrLrwQ89hPNtBXP8ncDKR0nR7A/tzRx3HO3ymO/J/uHsHIVUjk5iixcq6DOL92OQk+WUkffmCO9FQJ/EhENzGW+vDunQYl4dwDg9yjagcepClN8efKtrZMl6BujMPov8eRpZuZvagOaoODtTgAudm9lT08GeSzooLAz3C8c3+AnB1oz+nAoctDkAMFg1sIRfavH+Gk2qh6JNWfhZudykpCzZu2cBzcHq1y5x/9OEr7RJ2ozuzXYf8pXHt3w5LRpW5XZaQtw/H1C9dRjhw/Qu0+UwB4HeLHkC+pnP/vZ1qAYnMm+NUOApW1pAFA0gJSJGWnxRmrJSVlmEB7Poh+m8VklEO26ikR3GSsqWNyCXsPPapPQ3Zsqlf71CuD90g0DT/PLlC9ZlQunb122s3NDRY3K0e50BG8tYoE+Bsf7YbJAAans7hnGSUQPx8cv0IVNeqbnMxOsd7HCtdL+5R+dI7orLmf/Ktd92+bNpfEALwJexw9RQ4eu6ryATAVkDSm9KmsUarWNjhtTxFycTR5YA7+x62jycI2+WuNNm3UPWvEdWiPJrx3jzeRBL6/AWM1gudz/QSUm7FDvu1HCvXf5uoFTKi8P8qwcZEFJ4QxA/gYseXXNpPzttPj1/KrCsGZfNDElBt3HZOMnD1LMyH8U37Q5loJkVRwNcnlAW3/11Zc8oMjkacaAlAd4DVySswNl9rXX3Q5GuexIN+WRK7VIp/poKl9f7NnKLDs7VISBX3W/fyOCbgDNg55e7ckLHUmS34YWjSa/Mj74nhJKvGXu3K2ay51c5NV0THnGaI9n0OSwkqkfNsAq6xYVt8bR0ey0zgS+XUO3F8Iwu7W2RdIvkOMIxeJHaMW/pR46chSxvARVx0bFB2j/Lu11JEFSz7LWUwXfq64ZJRgB4hJ8r6x2/VNYLbwRv/ktKAPaAOx24YpsfAjliApPkb84RTLpJgN7i7Ci5gjgdUpqKsxkjwIjjfZLZX+vgM6qyKvAk6XRlW8LFiyYBRDQS8l/yfAig1sGKgPbFZs8CoylQy6fwZFxmFyD5LZikUq7hSbhZtH1s5n0PJMu9ELgHjc8MUBlYk8YrIDo0wPouOmyZKfLT2fkzkHMkS+XPI0bAGrVeAtNpAG8p2kJdPDPysJKiw3fC8m7Du3pgFph17p1V/6xWA7OwUDQViUC63YMII1zaefYWYj144NuvykZLp0w90iNO6MAHiFr32rbt2bNVWv+O6wFZzLl8H50QYWX23IaV2iqkoJ4WQ/HjIyMWGVSPaOyqQJapQLgj1Q3GaDiyNO4Yo6j0+inWVHQ3g143qYA5GOmydb4Zm9+djSM4k2jsluKMvhdYxfcsz3YnljwHkzc6lYbiCMhIYELb8k2/cc66/HXB8NKaC4GP22waaQ99AFgyZSnNHuokKFi3PDV7k1/0zPyMz0pVUqxn1svJe2sF2HDeCzlIQDPA3y3dM/qBP8c5hpu8ZZHBqoXXm82aEyKswpuQSLnqB5SV1ho4hrMrPklHCSLmorMViRPpBf6MUXVGg8ZhznI7BVBu9JQrPYAADKeSURBVKUI3RRW5LaiDbSDINrxPrrvsvIE8h1b8s4K2Q96R8RMr1SjYnIA6NmVNjhK7wkn5c6qzAbwhN+JwvqFJjNJtkk+WGR7NHxy7Fp2DCG8XXFdrd2psRL3KvKDoVhlA3S/F1iYHJVW9dzisEhnpBBuE10/bdClMWNu6Ew/cOVdcZn4clhthgVKYnPUiZiUh89rLajNh/b+Vi4gXybiIpQMlAf3lssR23J3TX4JD/CVNNxj6bXmkHIlO85ICqLb3UK7woELDvz3qFb7fxygI0lYI9Ka2lgIaGp8Lp46GYSvWbJk8Ex9pR6rR5DwPRZj732aSSCUlAJAm2xpwBa7X0XBPuk+qoVup1uX0HYPA1BJlJbVkiaHyy67bg7acbgDnNyKh27tjIqRuS/GJ7infyNTQ/SwUDsWoKJ7y8+M1pgqKtXGKg4PtzbKCwdVzKZVnGd0GwVo/s5XyF3lMtsqc82kwWnYSfZjwYLnnNRCvBI1o+yUH+mTXH5Ms/QAr9dWHj6vUYk94CMGMlUuOUDKwM6IRdrS2BpIT1OEOr3k+oClRaJTB9gZCLsxHitfNOguRZGVzQwfDv+OPl6pmKtGdbqd3rltRYIuy+X6YeiywK4Qcc/VAIunR/I1IwFeAtccaO9X27l751kshLrM3PFxxbJa0E7BqAJJKViQo93x4ostwXTNnTs6n9vBVslyVGCLbP9E6mkYb94yG/u2R59UyZzMgqc5n61y6MF1UuZ8RbUxhkI8xkCEurhsyzCbN/EmZBnpTproDPzIXu2sNC30OxDOxSEyHGGapQf4RHZ+KwZoHwyAxgOZbtpjhgRUpkaLNmSTVk4rDiDXhnFSnxoGgb2gsbB94PWDfCfp2ceM/6hxQ/vuVHCX34C9qH4NMJ/vZKneeTuGm21FwtTJhXSsPt6bOjmxQGYswItVdekE8tdeey0+3+JHmCK1ScvZ21SGJPeyqDCpkkHWWwZuMfBDEXVU2gJTyOwzaBK6PPQRV8pamEl+ZF9ZqfhHAgdPoaaKRYFAAjR6MdlljWIt2oIxf6PCQVNxI28tunzLp5r3imNEhVmjo0Wzjr3bJy+hKQxvPALQB6E7Vr6Z02Kcw/SNOfDcbYzBlYdoJjOQcOXYFEkD0XwNZDxF0g2wii/o5y+FJhkqVooL+ITrqEmAFq+Vd/K0G9mZBY/hpvOaZbUzMb72b+yA+eN4HkUbmiMiTLG1qZPF8Nl9pb736RWumt5WBhIEV7cAXt3YbtGKOXP/AvLyu7MU/spf0Ef8qmvx2xqccSRNVVE835ULxkCKfUAC55/OacG7CjA7rIWy8maSHznwO2iS50H+jnTTGJ04Wt4kCQdSwc342m9RDE+zUzCGH8M0+tn7F4uj80R7JjWOsJM0griTtRBJgCU2811R4SEaQW/BW1zqjDWS9iMM4m2C8wywCiO5ZJAwJcA3HqqHbTBYnx1fvtVSlROmCnPbIun1phDtQGZmwSvPfkAUIN5V4yAaM9ziA4Dyu2rcViRWJkHwfrYGf65y4sfx6nO19/3qFJTtCDXEpvnkHXcLm4g/8atFUfVbbHEiX6OqXbvpWYVFIXa79LSPitGiqiwU7VhZxip2E77Sr7GijMQ++BYfpQ/JvPp0qD3zLCuxqgYYgHqpAArJidnsZQ/EcyHz6Nqrr77a5vg3OJO1AhAwUy9fJpF1PLOpEGiXShsXmWHuLWXIA+YhJgd+ZxxsFFw72RU2Yqn6wWkTEnpnZUDPSgPUmmvu9TqrFOOGt1DYwVQas5A9TaPV/j+p9IuHUKZ+bCA3RdcZebA8Wq5r3HydW7t29fWI6FOqc4Rt11WjA+3jqZNB4RPIc5HwiLs34nLz/UiJkL2S1+fYLHbNgRZ46JObV55SjPoInfzyysB9PehrG1FRa8S7r3i5yJvFEwRW2ciDeHaNRchgEmqWf/Wsusna60aEniBmnFymRB55MouSWxmvG1r3bJhZqookSIVGNt4UnJ3a1A1mTfGQS1vlP172u6Bog6SUyvhvzVmmi22VW/7namSyY1vndvyxzdPowhc1kAiSgVBDbG6Zp9BKoySQu5Bh3QC87/2gN/i5IwBeuud1sTXT0lP+ZJBs59EseE+zdezJQ/gGHPKaA99OTbPGjSypOdy4o7CjrnHjrQDYXDVzt86+gHMhLsX9KqakO9n1RzHiq4R8dVTnXyDFlXoFXuz1rhqr/LF8Mv2bALtaSIEYhbTf0pOWfmxkpPJtFh0cISqAZrdbTl/gWCyFm5QGSq2Nw/17vcp0WYXARwHI3aMI6UU10DycLQ1FW4CfDQDjVBVWp79rRP84ToPaV6+RTbflEKeW8V+Vg5Sc4JpW9lZ6wQMub9nLHXFYBccrg8/0WiWthp1bnewFXghhq2SQ64qX2WvPb7gMnqy40q0p0KFcbPnA8GKP11xzDTOPCmZlu0FnH6T1HZEgxrtcWUwIz+A1A/4BA/z5FdrkHRUeoIxsjn233Fsqg5jRaJHVGRW3jOzcF1HCgqbW1jVuIiN5aIzt4l9evAMF/Thz2zejBwJ96Wzey3jTRABsvzewyvX1IuAMrez6njfVGR4+a8YN2Cl03Q3YdXgG/q4zwkJ4BfNZP8Kigxdg1Jw6hfm1AgTh7wekZGVbrcmbnou3nT3Hb1dcXClGN94JkQpsv+rBK2sa6hlw/SXGrgFVt6yprOmPCxf4RUiDSwZPp3o+X0e6ITsBc5zLcREa/DQQj2UWXEqFtIU06XB+/IKKtQvK9xh5maz5rpitKHrasmXLHq+o6YY3H6mpCU3+5pCrg406aM29ZR6Rm/kdYpnELhTFpw7plkwHJdzBQPt+Fi77DJrYyBGhsLCJuA/pkVkqDpj1q+0rnTd6tXZZXrJSVN7lxrJqGk+RbMiXH2NzZwZ/VjIgbruummTXSUYnzkaXbNNAjIV0frJm4RERriXAo4whfwbs3M2yAthP4/CMy7G4vhQWi09Wq2nKWYj+5lnPOmV/tZpTYIEZ2CB1O2zCVYZ8BUfFFPZAaBPnLmxIl+CuXYUDUMZODhXWvNwaU7YYKKxZQ6fBJMkvnc50PWumgiwkDi95DGl+UBYy/MkyytOr0LRPzVLYStv1H+Jd+XFWkX76aW+FeKZTcuCz8uzLy8JN+g9uGukQSS3GTfM8hfUVf9J4U/dxgl7B30GoDvPgc2Qr3lrXBkGJZz5yx7IR8VMkGblQw7G/MxAmpD1JNn3Yuw844IAHFS6hOUmkrJ9sdTInOVn4vJ0L4Jw8y3Wp+50+TfTHP/p7MsZW7i9/jgVQV1pvLtaf7ML21NBvykpnIi/E7XP+05/+9FlThEdjKc7gp6bgo4oskOZe05/yMDg4ePK999z/Y1Dyu6Vi8QS9Q5ige2HElJM9XkqlnS/Re2896rmrVy16LC28SOayKCw8/8iqINPrDzlkng36/Pa3bhJ8oTYfbepkiqQGC3VQstw0L0ZWx4lJlEtdzmm91O1V46IKWgpLn6TX+xjKR/7apuXdhMGoGBZlql7CYNh1CuNnV/jw5C+xzDDablX+ufI0IrKFxdeoXEHAwd8gO4GKVjTLkpvOS4olXjyweACl8QkX4h3PveGWdFVz4CHrDQpPM5kiSZiDkbNtE8yz/94q33JXWlhEfrdvdNPl0YpAs+8ehLdtqx1ACgdauIy9Fk9T7YGyInhAoh7gxa+XrQ+auGo0jx+7/2y3PYnqTXuuGnpBGCUF9P45AwOz36+EJJ+VhZV59T/h8eH6MCHDaWD3SoMv+WlLTxq8CM/0T2hdT5ESavsAARoZFwL08Vxx81lP7/aCA+/LpuI/mrQMOElXaWetDFI2KVZsUQTB9T5vfsYG2CJFnm8ApaajvaukBk/WA5XOTp4BEEfgf9pA3oO72N+1Y9cng7D4QjZtkxWla0J5T5JNHT9YIq5WHX6NcAC5We8JoLu4ke+tEe4POg5QQB2HdyEy3EjLzWcu/SUpnaEokp2nnYFEp0HUS1W5Wy+VxkVz8hMw0mEcGAez8yZCvqSlDIJW/TRGpSG6/q5Fd6ItHVWd0vvWlxnGBZ1ZSrx4iiSRssVtQd034uXCqPZr2heeWsSY9LPm/49v3CZE8D02ncWLBD6nNJGIGnjV83xXbDCYsYWoPzB44uDJIrD+tPWST1dklI+hPRc6XeFDAZGsdQ9+/D526UnL/jWIwp8CWq+ioPo5kCMG9th6qLPU1FojvRPK5YGXdTFL4isGlVrhlYDHkdZbyFlQGhiD/wAed4a1wlXiT+DhFItf0cHQjmd0UNnavCxiLIeAPTKWvUZ0cJVMhctqPItBGtyXLl12Ltl5ZzxebJZQXVmNj9zgt7ZWRizRD+fPn79K35csGZa+TKjtKX/571CA2wXwEnUDmk1fucanoopNAn+7ZMny5QrseoJpPW1Ko4MPoVxa0v0TTzz58Hvuue8dBx988EGi5w+CCaKazSbJBXZyCQrgGZvgbi4UD57onlcyzZsxNwi0JVv/fvLsEEu0qQsAWWgWMjQbls/khCZ+TXrfobmO7HAcQk0o94kx699Y3guFbcFIvAka8lWAZnRkKFg5j47u/gzulXVuVs1kcfSt2RUf2B0WZ9OAng+GHCJc4563HjSj/7B47yuOlKomn624ZhbIUcyMOYeGcFWpXHxrWAznafc29E8IrrAS0nhFVBezUmIQHL1+B9b2YaJHockSavdSxTM3EQVzPFX/rVIapQPBPAUlc8CmMcL0L3ZVdv1KDDlgMoWDrN8xD/IZrajGuVIjIXcDE3KicxnNfybBLA1kkYfnxtQbvEU2AidbQCK3DIOqnyXxvxdUOlmB1LkuHY9WZlHTQ+yg8q+qGOLd68d4Sn6gdfPmzbeS5G/0nXS9bo0PPtlvzWeWDu2LMfvpE09c8RilSf40DtQOvcnSsm+SHQ+RXFo8swld5UJU/NR99tnnAQXweUN/Yl+0Xmbr4Y0BWRDctX17/1ZF9ZdvFJmsMEu0HRiO7x354I3uNB4mkp1sJG/+fU+zUeA871J+fM3718yrPNHjsL5xK7D5Xn/BBoB949aMmAPgkjazo1+yElf6FvRQdSaXseDoU/3iA7uLxfAvkdVZei99mipdcunOqJs0REBtJXjCCScciuX3d9XR2pWlcvmDCPdgAbusBEI1A/YkQyhD6M4+/Qt04qP6QKGNnPaE/CCvigeo+FVvTNUK/wmf2qFyDUG2HaA09wyRf5LaDTHhXVZUG5VsLH79k/bIqOD/ZhVg8GVA/klSXv3Jyq4P2v4vKaroOaWtnXziyYt37dj9LQa+36VK2Sa4q12g6FGNIPjS8PCqq1txSPqqgKFcKjSUV6EvitLuamOdn1sF5P+8GFa+gkW92OUv6qbs1GB52cFrtPzE5U8kCz+cNTCwlPzfjOW+Q5lQ2tzIVrwIS2FdXdDnlpd0CqzbdN11l21pFJiZVhqU9/sfZUZS6MoHL262IGnbwbRLUySTsQEUwaZIOr6VWtbL8mGQQePz4IOz6xq3yYg4XSow5jNE3v7Z1cm2dAmXofBN+CU5ncHkkNel0s6Tn1S0h9ejBKBR7AFNeSyF5cuLYXg+XaOjwCcJJhOw+yw7q80ESuGeQWPxQX37/npAHks+S8uZrngCRMCRQdXwIgahngFo+hWEeQunxtgB7pnaHeVa8cfiSbwk1pkqcBAtdMokdMpLXyTHXzFQlUqcURp8hx6N+QFlKfo8EqGtdHx88lATPSWMnF5SCSuX4Ep7sVxElIVAN6/lLkGMQiPEFXcDJD4n2mpsVRZ6bnIJfK3RrdTCtSjABuSt3E0Wpwkpk0kow6JUKj+rGFa/t+ykZZp26q3skvhpFrnF+0BxBezKj5cdrrRXV8PaxUz1XUqvheKKbnd0rHzMymZPdHun5i/r5Sx9OoRmYaejed0r1Uq4goLc2wSrrhmAsgUx5X2/aHdpiqRIuTyG8Rx4WfDZei2KO3YhPRqhu37JPPexly2fkjGdsBT+I8dsXiOvAFohnrLLfiwZmzopfaRfftaJNOSqN+hBO0biGNWHyZNVlL6Rvnmj5cr7+gf6j2HbV1VKCVICUAOQ9zKBYgHS6kZn4y4I1wyv+TgVaoQ/HURtFmx6Kb98fpozrncOSAwYAK0XUyrn4gt+LKPiqlqyS/PyZEoh8Cbud69cd+UffIZ8VxSX1DyGFmIryn/s/C5w0Gi+FvEcTSX83lL84gM7+r5AHmXNKY/mN1dlx3JRw9JMibUlRKguuMISX1alyQhFPZYG8J30QN7AegSlp1lNqvvtKPAocuqD1xFonD28dniDGkL+LC3SbHqp7ADMwrp1q26gzIeh82oC5y0rT58sBZHyQtkfj7HxI0D4rFmz+r7GoeG2xYQaOcnD6YyXnY/v7yoDgXoo/YK/qrPI7Tv69aRCDdkVotMFAGpUcEeGMG0WsUBA4R966KEDMTC006gHmpb5Iv+mqzR2koL5yBWdsjN99LpXLVYXoOMHAtj63JKuAiUXuUOn7+nr6zN3kqeZfG/vQTIzZrgtclY4HhP+y3FR3Sw8+UoaN62OJf8tqRDGXILcH6IMPooe/JhymW0GZ3u996J6/hguiwqjlfNwY75YeiQdUlotGXoYB0gKTT53AOKDVG5lWIqWfGszf/Lj2tQvnPffpKd0PpXlf7LQolCPD6LiGcw3fB0VT+4OzejQNMR8FSBOTABbooDvYg7NyWxTut4XrL+T3pGMN1xGuMeRlMCzXQuxWfZMFvrI4NEa+tYXAFZXoGTju+2amposUFKFVaWQxTGe8LITlv15tRgxUhe9Bkv3cPiW1S5rXry3U3Yqd0TAdgvV6nk0yn+vNL2M9NzqQo429x7gPBXQ+g7lP0Cl7ESeApqqyk9ACQb+mP0SLtiyZcsab317ntQQycfrBwglOyrvBODXGAVGzJMgp1HOV9KAHOxktxsV01bAu5lvdRrnEFz8BFyL6+l9kp+nkp//JD/zs4IMDhSGL9ysrULtFej+d+HVl4vKVA0nluSyV2CKf1v5YCKAgDSLjksudr4we6pfNDQ8pMZUl+JO0BX7kvEfz9dTn/rcebNnjaxmOvTxcpkRPbPBgBw1Xoe4OH2gWn3b0Nqhz7vk8/CXhMVgOA+34wdUTp52xuykgwlDivyJp4/A09lt8JSm97B4lp/bWjF08UeU49s1oJpViVvk0AbMECgNZ+nVWEcnMiPnO5Ta5SO10u+Kxd06n1JTCEMq2T4UHvt8hH9F5VqBqp/C4K4dfM17AYR6Bb5ytEi27rNmMTDeSNQw+OLQ0Jr1+jrekmDREzsZ1haQhj63k47iTXaZLAgAFpcGsUhOwle+FuC4hN0nrwrKwc0cZaaBKPVg6uj43wLPvlrf4ZWgcjzN3Aqw4Dl0XQ9XYLPa41jt+veV8YhywMCpXMYshnNFTmmSvuSf6fIWJFNPL9+1c2Q1FfwUAXMHl8pCU08r0iPOSz+1MhqtmDdn38sBxp+Ua+E1o+HorbKyBZbN0iEfmglyNErwtJ07dw+iYyeVyyU71QrZaZM0beVgtjtpPQCUmQV/xBHb2IlTVNlwq1CLV5o2S2TceyxrSMI+a0S4mQUPj7ZgkKD+DmBpdk5J88VdhHGEGvyk8aA2cLSM9DUYWyFLUFPgBlEyv/IDobNm7VyAvPZXPvLStRlrtFqUvaJvcImrLPPwZ9NV0b8qC6A+OTIyupR2/imogspZtPSX5zLPgvSIqO876aRlP8fPfyW6EaI/TXUnTwIzMaysPbse3Pbgr+bO3VeV8kVWMP5DZ3dZ8LhzWXRQKh6BYP+OH2eWwtE/8nwHLbMGX7CuawdhIS3GGj1S/l8pbgq0Eh7bYEXWexnQuoG9xr+s+AItKppAK3jC9+kyFr5fCDUHPmLPa+lf5momarmukqw65QslKyOPQeQ8yP4udxeq0Xpk8VvMt9vI/Gbmv23lrnm8s/C0HkCjuAiRPGa0WDkW/o4B2K1nZKAQu2pkXeVVeM+8Kp3WMJQpm5voJ71bg9CSk4DTB8pyV2VUPHV/aby+hFdtGfokK149i3YbHyVdknVbicyFMjsMiy/Gcn1xpVi9OYzC3yxZMvg7sr+BJaMC510WPgq1xS3AXDgSvXoc3x8HL+y5ji+WRsfpl/KuaV8qdzUiPBQehF9bBLdz5057Ad2FQTHujSpApotERQ8glvvE9onx4IlRNbYauBYehl2p9DNrnuE7tOFTvRrfeFiPIBNvkwTyPSBktYD+RFtHO4q85T2KdlAenr+kUZsk+bpP6JMWWSpf99OgfxRw/xF01cvK1aNIES0iM61ynYeun4Ou3oiOb5LbeHyPMBXnYf0oC81aRGWQDP8A0HgROSohSOtmdSF3Ap8IuvLv4soszmMC4XG801/dRRhVPA8qnYCW6KrCliHHeunCJ372syvlC1RrLeWwa2UhtvqYss2JMDh9qS1acKL7VFxUTHU71YCp0ZPcyzRAOslHS9UHARIqbVSFgxFrakLkhUJT2azCiCdcPB6cFF+NXycNoEhaIwg/97AD29vWDq/5ve/V6WPeCx3SdNsCrrCf0GP7HryfDs9F5NqZPsWuC5vbLGBDZngPisfA3zEI1ORCY7i7UGNsIi7MPvOnIztdKlOTXY1R1LgxrNMvlbuFY+o9d5uzjt/edAXsXUQ5GKBmh+EY5KC1qVrtt2mClgD/eBAVeK0dWmcDmfCstLI2gtZ4CKxIxQAUmSuj0omOLo1ViEBUoXEMgn3bIoYCu3j3VqtlGwD2jVtOeqJj/AwPr74cI+hfKPP3ghOqq8m3HDTFmcapNGX6yTRgHyHuW4V9neh8jvSnPaiUItkLgsGaK5HbL9VV554AYRe4UiFxtiMmbA1HEIN4CFmXgE5/o7TOIy5ND1pxjWsjcSo/pk2BtoQ6HBS+gD/V/B4Uomia8lG5UvTDRQJRfROPbSSZN4rApQwnOjiYDgYOrHg6qoBLroJZGlTi3i/ChNGAo8kNQ1blEsd3yq8wbV6jyEhjHDtp2d5iU9OgSaMvGZmc8tJFrsk2sMUoOA+2b6O3Yo1aXlpNwpt+SFdMbrFcZP3SEwv7ndwGAGxb5anPCic5E8caVeiKRl05880UgH/uBOS2K20qvjM2tI10fPmGwP+e5G4gTDKbKpUt1mD4sB5EdQYwziH1MlTueeTtaGuFbHe3CdagtfETBgslQ+Ti2c56twjkh/DRRs7ZHT/OlJWOhZM+CXz1o9RX+iT15L/RWZVVe/gUGwqcAGodpjcvPXHp6aItty23Op3Q+4f7ZUpN62+Fyl4Qm4G4i1yhqhLkLt0WApEA5V7o050/pW9ghR7pnRUk944u6Gu7ALXU11G3zxYxLMu6qX51FkWtxhx4E4XJoaPE80SOlU1WWxnVknUhKxflq2mOqv3ptyPp5dYNGalcPbjvJtm3DA2t+oHScQ1fR3JQLwk64ap1q24Cts4CXAVgyqfvnSmpTi/TG4hIj8wg8TLT3eSmgc5Yx7yMrZAVftwlB4l9o3nfmOqu22AoPa/DLXxcPllAIAVytU3X2pGTYyn6KZL9/dsPRD62wR38ZqE7RkRPUeE+/jX3T/2Htn/Z4TAutvUs4EvpNJNbs4SsAUKlN/lN0JoFzPLeeRlC4ROENatGvXOVu68bWcikw1CXarYYkZytBBuOVUOCq8Z0KR2wwbPKqdmfgvtvDaJO+q1R+I7f+YJLrC6U+fuYlTdixSPDQN3ZqbzyK3ULbjAcRmSVogN3MwvnvVddddVGWQCATkNwERDhnWHFnhHudoPWgtu6z4J4lYeAS4rm//S7m3JSHs0tAxCOADBvQTYX8s5mzEjR9dzhlciR3tNX+fEvrofUSaWcjCXJZ6LcYpdYNtkhewMzd/SdtxrRn/0hwFx1rtj1kIke4y30IMxK3GBxU//4wWjaPG1wp5k5MfVUmBaPqpviR9szC+QL3vJuES/zZzgH4OM2j3Qy5TlF3JhTYwk4twvCKXIFzY03HnDV/CcPctWo4dG7RNfSETI82+A9Q0+LsQHOAuQHnJtaOtrqUrp+7yJ7TkWwKc389tjqP9l78qH3ijMtV8KErC6lyH0DIrtASofyyKruRgFNS2ZIBD9/qHncWKXB3+IH/hnvvMuhIQ8//em1+5Hf9Bz4aRN+Q4am8iUWKOQ17VBumW2A+xsEwEpSgNalymg5UEOhXpP9KNT+Hv/SZXL9WaWM+Yg/zYx/bV8XZAImxfumsMuoGgz53XGh5PdFa7xFHiFGC+7wWXSuL/+TXk3dBndJXUwCNH4QoDkdDe6lvpoFrwkDjYNnf0uZGd243CJv9Ehn8tYJyzvRksbNuUCyMzMupHQz0aew8Ck8b79SL51gDQ23cdEb/VSeAgxBTZ9i3DF8lwIhz2ZbGXgZSM6Sid9l15757eXv1/Kk5aa4mrZrq9ld2KzlTfD2r3Qi8sVbhSz1l76Or/fSclk9W8tM+ylMX0x1ucpUSLA9eg8t/XeUtFNaCbvhVS5HGkiyo9i4+0JsGPZh/rIq/zEgK8vlToT0ytXDq7+pPHUb3L2cVFmkU9y3MRX1zVSm61ylVJCZZDh4n/aWWhDaro9Y2b5uAPBRvNJ0rBL7LDa+4/CRhS0jCR+5BznRM3D2DSkoqEO8bXAfzcuje3Fvo1BLDmBZWVjpAaYxTxneercl+kGPJVl8lYsu+bY8Wt5rUdK4UQ9z0WnELnqEzqwM16xZcyfrIc5Gn2xGGmHbBXk14ualQPh/z4rppUrXySFdHr7stGL8xUuWDH6CdUPvZ2bPu5aytQt/2nPqrxUXGisYDP4H9P54fposdNf6C8K/hnjv5oyGw3lnM4S4T+nlldgS8RVS+zJjfZzNsu27Ze2heuxnPTMvFErgbf5klEqrfWS528IKAReK1RDcvUVRiir7E9/vBZIu1CwZVgEKqDpW3iyJtRPGyUc+S4qyGDKiez0G9AvV1RW9qQJ3z6t0SmmsW3fFHWElOJ06+QsH8tK9GQHywmLGE2EnYkCwYqDJYijTBcZeteFWvn3gceUQRyLgoJTQplwiA72QTz/RMc3OceHy6E+NtiBuFNwUSegmNJVou5ef3dMf9GvV7oHt0HG7tsaLttwUSYFyO7QaxMFVs97ySh3/IVL+Ijqt2meF1yB8llcyCnVg9770us7hZLcFrrcg8LfLlV38o1Z4LAw8GYm/jGLWCVQv5e949OQxClALozP2mTPnbPy+H3UGs5Ut+wQdz1yDrzHD+TOk9WcKSzpmUOt5qq4JgqdCGiBy/zlt8YdpzXFRh3LVTLU/vp08VqRQCEwuh61Y7m9ihdrnRKgFcMl/ZoKPSpH2vN6HQsqbviJQPwMpgmbtNGxI8hLtYnjxZ5YNlcAUiQHnC2H1rynbX/BNMhibj93FhMeTQpFtJsTqq1ffzLyMVzCvZR1l5mUnHnMLf3wanfy2uTUGG+F95dF4Wt9+++3nyjMBYSVhobKk5YAbAymyaYI+jreS7Xebu0iKC1nIXHfqH3S9E4ATCbv87J5aiXUphcjPgc9XNr5xCwr3B6OBuY8cKOej45kadxf4+u1OoqD6j1jx/9Ohq0YplDSLDfB9+uju6of0gjqSHNitNPVO1/wF8z89NLxmOWMs5/IT+QdnDQ+vOXnr1gcNd2h0+rZx8e2x9M6eoTjxFZ7K/MEt4NTdYM2UA3uSqn9I3ZNpSfhn/w1dOkd6jcKWCTMzQD4GUxtJV+FSyH+kMXo5rfpXlI8W4K4gqqimcLS8sqKSOfD6mPESDe37Eq/vjwdI9zhYOd7Fh47b01zxEKXaQDt4JkvaX4vibpJ8FA6An65GybYNULp0r/9U3l06jZ7EdwSC4lG88pdUIvE2rVdcdhRltHG0PGrT+ubMmWONI8hpVrYZAPGgXhbWzKdPwLtHRmYZwHvr2N9l3UGunQ3ufO9glHHcu8TMLezJk4WpVmH87B4dbkJYf7iJ9DzXpXLlursYFLXIq+uXpq/KOEGXb2OFyDkCZ9IUPlmZtZGgHGRaqwMyRO/ElfIK0ZBhwq0u/7wzbwYJ7uQbY3413TWlNsbGIJpFhFWU7c3YjC/Vt0EdVBRFgH3wTX5KJuK14A8b0vNUXQ0VQy2W614U2JPkH1gg8hlXGQ3keZ4uYBifb4HyKCLXHHeZgCz6qbIRUXAKjdFlCqyCT7e44wm4MKnX0SJWX6kB0xTFusJMBap7VFiASe/+SDvxfmYd3YRF6sFKQNWuotWlk/OHZKN05ZeEnZKt2sNa/jZK+xxcMl8UPdf4qfysgdO7aboSkL/imis2H3TQga9G4B9C5lvEKzyr0VElmXagd2WPDhQ2ARqyvlS5jQ8EdZhqv8Lopm9ZLsJLwJuvvvqSukVOqbj7Qayd7TEgbWw8GFYjc/+kaHbyGJB3q9ccbsK0YecGGgdwGRKIG6CAxi0cMYD3jVqGuFmDRL4nxDjSd6i1X+mCq0ZbGcjVS3WJzlm2bNkxMJOsEfKM4dqVN0PXAH8yTmytisdLQH0W/OBNqMmFdAIbGe5LZ2spyrCb87d+igbNU2RdXdreOSbW5N+GAK+wFLYNkOl5aO3q9zI5eyUDr9rgqCy3CJcq4/SARGyxWwtJAWj1Z4FtRG+Hp3dHhepLV69efbOzSjMt1/bKoUygx2ZFUbhZ88LwBO0zPlsi3E4D+KlKrXIK7o+LnC9PDY8KXmCrv6x0CdrWJSBij1u22cQaFlgqK1g161i89Ar233kVPZv1hJFsfOM31Tw1y4jNJFBlEIAODa0+l9Wzp9JIDysCWzCUkZ0H+qmWnWSgfWi0wK4v9mLFLgXJSfxoYAyY1mHbmlGWlpmeG/0pmt7bICg4vIFnA00/NdLfy7Wyxn7iIyJ5aOO6rxKUtOq2m1MkjVcQWoO/yrNyk7lRgxWTCWUotpLGUj+6fUl/vKsGVs/D/SEjS5XScKLN9OKpk+XSUYzmnSs9TeOgaFJ+JiMKmHonreB8OC7C2l3tOmKbVakMXMz33SyafSOfn8f7y/hwO5IZiPv9ijX1V1OAV9LpzOFn+hgGLoNko7fKLcIla16ZopvSfYve0VQl9xY7wF7SkXv3ser1i8VqiFW65rOeRwpcvJiQuWe6dOI6Qj8UbMwUXoHgSyqvKk9LH9iMi3Xr1t1qO/oF+Jcro8PQ1MZdEpKAXpeUrluAJWZjucTWOu1dsawyoafFCuHRYTh8/Zx5+zzXL15yjV/DXSnF3HRfKjPHEzq2arjcV3w+1eLd9DbWCxwQXdnJzvQL/rohOxWzpyedtQaRVbZ9pFcYGd19O+qzWrJAl6zccP2xR1Ewj+JUcashVXx/1/P4P33TX+wjT80iGT+NkT2ItAHagc6XrjL1cSe/j4313DcwUDAL3k8YULrduFDveN5/XPd8nifna4x/Nz4Qb6Egfnyj1g3e0jTkqpEeye2H7Xke+kPX3sYLdxFO/Epv0n+N8lD3XbgTz84pvATn69uUnvTVN/r6PXY1wD3MP0B14KqrLrsHnf4peP9R6uMTiqPFb0Gbw7dQpTBuFMboTN3TpACvZJW5scq4+qJirYi1Wr0QMNlBxTBwoQKIjkBMfxKi8pHnsnwTQcI2OqKpSu4qu5br30kBfhlUPRUwPVOrJAmr7XX9Iqa8aeo4trkgNQdkZ4/qei9mooARgIK13gYIGtkv95WfD/S/Dgv6CirvdgQkf4kHLAXX2IH8eDHoU2GlVPz2MojvcUU2Ja0LT0CTC9au5M9PZFO5gzK5CLvxlXPmzpG76qs6kciV25622sXihEsWGC/tAA7N2qIn9Fmy/Bx6Zf+XvQWuR3baC55xr3rZ0bTWyQ4a9XLT75TsUuHlYpFOSW7qBWorg1Esv/+ujI6eywyfF1B+PxWj3jc6MlI7jJ9HE16b5akhED+t/jgMTeRx2bkpl9AIVsbTGJM1GUzbOYJw+4k2f1aWGWir1Pts+nJU2C65iV/AR7eOLnTFsIDDTfC9R0crDTIhvnS1yrP/rrBlQouXZAonZZ29guXLRUJ3aN3Q12mMv6K04WHA8Sx+0pfnM31Pfxeg0Zsj4+QfcP4sByExR95krDpq9V6/WeXQh57tjyVv/nS9i69gLkypd1bgwJIfQHwuLps/XcleWEGV9RSpOI8vPN7FmbqblUQr8qqMKJEpAHcB62vJ+HcBldeQ1WXIYz4gpL1m/Oi+LbkXcBkgNvJderM5HuCS4LQHS8mmq/HL0dpCZf81z1cyheliGptfeV5d90kLByT4XJcsHuLJB7YvmwT6OfCikRRgU4KUurJjjYI7CxO+bGBavkZX6S6kd/A9gGIp4Ps8+eKIcgxyGkAmJnPFT/+RXqKsxgeJcOkfcwdxs0txaOxGWUJD4xL8ikhXlWrFNTR4N8YhYj+7nlVu/t0MveugEzMgVCbo1gb4PJ+jI79CxVjBDjLPRixPQ3ZHAZi4vsznWSc3K4dJZIdOJVmXtcwfc/KjPzKP778KYWE1pbAOHhIwIrAdPIN1SDrBNjaqvmj3rt37YliwtWRQnEzZlBJx2AeeSl9jFXhYu8ElrtLzAGEkKMb7RkcrPyACYyZsUSG1anGRvrSGxTnVAdK4NBU8rTup19kffZ1gB032SIpW79q5627ks41nMyKyUDL+qM/0IotBLfi5i6N8dcxfs/Sl4w4LKtjHHxkdHdlKYsfyN2JVNa7TqrPa3W8CH4RRsU3IIw2/FjHMqwXRM2j0fuqOcAxSvZHbIP3NWlC9Q7yhuzHtIPgJSibjrcA2Devvu+e+czAEr9FvNni+m6kPX0Wn/le/7znonsnUSUE6vloq1fgUvDDd+4AJ/s/AVbECzROIPR6Ch1AX66K5Slj3TsCVvhxwsQI1ugt6bFtbuJ4qcc1IbeT6q6++OhmNd1t7CrjaFY4S1l8N3p9JfVkFLwM0RGbhpXlq8qxBTBuQob6dhtX3YwpX/m0VsB03JqAXcPn4yGwROnQ8DkIdHH4syR/NN/bbLsxV2gKhtDwkC/enhlJWmmZ2bILrW+ju/R5eb8SC+A3K9oc0iKtspIDpd8R72Fzinz+/QtD45jeyKh6PPhwHKKNfwVEIWvO05yGzup02FcHLTj0Afm5DZg/x8i4E/Adg9CZmntwQhtGNtlhGEeJLPQn1BBVnAgj4QF2+W3vQAc2p4tPXj07pdxo/l2hcHTRMUC/k/vvvlxVuPLCJYsQU0Fp/f/8EnrTegfcTAF6JKx7G1MCmTQds1cEvDRiSrMbT1Dtd49/Hb12D439M9d0zkysdCZPKoL8ExBiQmrdzZ4WtW6tPpFI9libzKCD4MJ4PgPgs8kWXBmsAa4W8j1JRdyEBgCvYRCt6BwM7t2Lv/4H9vX/3wPYH/hcLakeKKR1tV+JdJ8Duyfk8M0K+7OWkbdP18gA8gFykPbif7Dx7ePjKX6SVyyci94imr8Gzteb+PUCi7uMCVkgzuFtdiDTmAzpzAf9ZCEazScCoaDe1fzsyepAM30tHaCN+wc07duy4dzw9n84LfvmC6srCynYbPc/ejLgjI7MQ0volxlRxqagLilHx0FpYOxQr8UD8W8xKiGxGA5JjzFbuLyzvQvVBwm0m3F0MeG02n+i43KXSmU5gH8dF72e3JNCoHnaLNnQagXke8p3Gz5NWEtaDXfIiz4MHl/GgIxp866MVnQtYzWHuzdxiVJ2F6Ysbhg6yjkULgm0A3VaCJr7E8WnLWtfc3C5bVrKcDAgB+PfC0Kdk7GEZAw50Sltf2sulSMt+GxNpniVLsIViheSj6PKRNIitk2keQsCkRSnaYOrhaq03z93YF8mVrnE3ZWeGglLIaCz4DaXGmMr6tLJQaNHgtk1bs8Aod+lwMysxK5cNw8F3uJ4Vo50M3lJ24m1K+GvI9NhLO/Zy7GfnT01kbeXXIJ8eQ7yxpd9eFs3idM5kEwodAXyKpnVxOwSdhMYUgHrCahqMly4d/AyDMu/WQgnaZ8milTzwneBKY80xPrr/wt26jMZnW5pmklDjh+TwbH0WQDvfs68I/m680EjaGaOSqw/fRNkap/bIemv6gfsr1CBoSnbKpa9AetaAZiCAkqssHX4vlp3k0rv2Qgm0ArR2RRJiZdpJ9prMrwop0PbEPGDpt94TVn7XdCX1Qbt+T4FxsHTJ0m8z6P/yPAAvFwouGgH8D+cvOPBlgAbd+5W00h25R5qVQyKzrgvikUOwJ7tHTln2ctJlCZivs8s0RU7HtvkuSkvyhG0ZptsBnvnMZ85hOmOuKZLOP85NmBJsiMFdnK3UP51cPSBvX3o92bUvu17MR7gEvL/oEZ7NidkLwzlz8LtrnrMcMwKJZpagBdE/DOHpplFQJrnGGz3pt172rp4EehLoSWCmSWCvBfi+QkVL0P0+35nLRdY7A6xMQy7clYrUsyJTwug99iTQk8DMkMDeBvAaxTbJV4uFhTzMNmtcmw/kuAD5HcxD9wCfK26OZHpBexLoSaAngY4ksLcBvITlrW3tmNef/MoiRlw5suBpFHawkMYA3jUYnmYWKr0wPQn0JNCTwLRIYG8DeFnbBsbg9GFaQap5jxkvF88M9ntZ5VZ3kENGGr1gPQn0JNCTwLRJYG8D+DHBRrWF8dR3rHLOKs10eVdO7H+3jZ4yxesF6kmgJ4GeBPaABPYqgGcBjIlYK2QB98NkveNywePSeqMnXzZy0fD/XX4nP/++d+9JoCeBngRmmgT2KoD309X333//2UA7G4AlUx9blosaAm/p44j3A6wt4/UC9CTQk0BPAntKAnsXwDsps3EX+zVHnKbDi4xz4LV7DZa+9hDnPjZF0s/K2VMF2Eu3J4GeBHoSaCaBvRLgtRshApnjxlubyabuvXPnaD9xNQt3uo/JoG1d4N6PngR6EuhJYAZIYG8C+GQkVVvNIvs5WOS5iwBXzU6ipQE+N41ehJ4EehLoSWA6JLA3AXwiTzwtOlS4lH2GZBxVA6yA+0PFYnyavXZ75Ev+ViLhpPfQk0BPAj0JTJ0ESlNHeuZRxl/uNkCLDgnYzJ0D3ATOWrwUHy04Gct2UAk70ETRxtHRfp2w1Lt6EuhJoCeBGS2BvQngE2ubbsuRssb50zuTgZ8h06y0NMDKOR8FDoW+r1jcqYNKeldPAj0J9CQwoyWwNwG8FYROQ2LAVGd6alZMrsJReJqE3w0NDe/KFbEXuCeBngR6EtgDEkgGHvdA2tOdpLfgdVD4cRjkBzFHssLp2S1loHP21BIyOBuWq+XfXrHuCjtJnVee5nTnpZdeTwI9CfQk0JPAFEmgZaMwRen2yPYk0JNATwKZJbC3ApUdzJv3UGF32LH8OplPq8pcEr2APQn0JNCTQE8CPQn0JNCTQE8CPQlkkcD/B3tmlQgJQgIQAAAAAElFTkSuQmCC;" vertex="1" parent="1">
          <mxGeometry x="210" y="99.99999999999997" width="116" height="61.7" as="geometry" />
        </mxCell>
        <mxCell id="pLtHJVitbu6P245L-ZSa-9" style="edgeStyle=orthogonalEdgeStyle;rounded=0;orthogonalLoop=1;jettySize=auto;html=1;" edge="1" parent="1" source="pLtHJVitbu6P245L-ZSa-5" target="pLtHJVitbu6P245L-ZSa-8">
          <mxGeometry relative="1" as="geometry" />
        </mxCell>
        <mxCell id="pLtHJVitbu6P245L-ZSa-12" value="No" style="edgeLabel;html=1;align=center;verticalAlign=middle;resizable=0;points=[];" vertex="1" connectable="0" parent="pLtHJVitbu6P245L-ZSa-9">
          <mxGeometry x="-0.4519" relative="1" as="geometry">
            <mxPoint as="offset" />
          </mxGeometry>
        </mxCell>
        <mxCell id="pLtHJVitbu6P245L-ZSa-5" value="Catalyst" style="rhombus;whiteSpace=wrap;html=1;" vertex="1" parent="1">
          <mxGeometry x="515" y="450" width="80" height="80" as="geometry" />
        </mxCell>
        <mxCell id="pLtHJVitbu6P245L-ZSa-8" value="&lt;div style=&quot;text-align: start; color: rgb(64, 63, 83); font-family: Menlo, Monaco, &amp;quot;Courier New&amp;quot;, monospace; line-height: 18px; white-space: pre;&quot;&gt;&lt;div style=&quot;caret-color: rgb(64, 63, 83); color: rgb(64, 63, 83);&quot;&gt;&lt;div style=&quot;color: rgb(64, 63, 83); line-height: 18px;&quot;&gt;&lt;div&gt;&lt;span style=&quot;background-color: rgb(102, 255, 179);&quot;&gt;&lt;span style=&quot;color: rgb(12, 150, 155);&quot;&gt;Filter &lt;/span&gt;(&lt;span style=&quot;color: rgb(72, 118, 214);&quot;&gt;age &lt;/span&gt;&lt;span style=&quot;color: rgb(153, 76, 195);&quot;&gt;&amp;gt;&lt;/span&gt;&lt;span style=&quot;color: rgb(72, 118, 214);&quot;&gt; &lt;/span&gt;&lt;span style=&quot;color: rgb(170, 9, 130);&quot;&gt;18&lt;/span&gt;)&lt;/span&gt;&lt;/div&gt;&lt;div style=&quot;background-color: rgb(251, 251, 251);&quot;&gt;Project [name, age]&lt;/div&gt;&lt;div&gt;&lt;span style=&quot;background-color: rgb(102, 255, 179);&quot;&gt;&lt;span style=&quot;color: rgb(12, 150, 155);&quot;&gt;Filter &lt;/span&gt;(&lt;span style=&quot;color: rgb(72, 118, 214);&quot;&gt;age &lt;/span&gt;&lt;span style=&quot;color: rgb(153, 76, 195);&quot;&gt;&amp;lt;&lt;/span&gt;&lt;span style=&quot;color: rgb(72, 118, 214);&quot;&gt; &lt;/span&gt;&lt;span style=&quot;color: rgb(170, 9, 130);&quot;&gt;30&lt;/span&gt;)&lt;/span&gt;&lt;/div&gt;&lt;div style=&quot;background-color: rgb(251, 251, 251);&quot;&gt;Relation [name, age, city, &lt;span style=&quot;color: rgb(72, 118, 214);&quot;&gt;...&lt;/span&gt;] csv&lt;/div&gt;&lt;/div&gt;&lt;/div&gt;&lt;/div&gt;" style="rounded=1;whiteSpace=wrap;html=1;" vertex="1" parent="1">
          <mxGeometry x="140" y="550" width="301" height="140" as="geometry" />
        </mxCell>
        <mxCell id="pLtHJVitbu6P245L-ZSa-19" style="edgeStyle=orthogonalEdgeStyle;rounded=0;orthogonalLoop=1;jettySize=auto;html=1;" edge="1" parent="1" source="pLtHJVitbu6P245L-ZSa-10" target="pLtHJVitbu6P245L-ZSa-17">
          <mxGeometry relative="1" as="geometry" />
        </mxCell>
        <mxCell id="pLtHJVitbu6P245L-ZSa-10" value="&lt;div style=&quot;text-align: start; color: rgb(64, 63, 83); font-family: Menlo, Monaco, &amp;quot;Courier New&amp;quot;, monospace; line-height: 18px; white-space: pre;&quot;&gt;&lt;div style=&quot;color: rgb(64, 63, 83); line-height: 18px;&quot;&gt;&lt;div&gt;Project [name, age]&lt;/div&gt;&lt;div&gt;&lt;span style=&quot;background-color: rgb(102, 255, 179);&quot;&gt;&lt;span style=&quot;color: rgb(12, 150, 155);&quot;&gt;Filter &lt;/span&gt;(&lt;span style=&quot;color: rgb(72, 118, 214);&quot;&gt;(age &lt;/span&gt;&lt;span style=&quot;color: rgb(153, 76, 195);&quot;&gt;&amp;gt;&lt;/span&gt;&lt;span style=&quot;color: rgb(72, 118, 214);&quot;&gt; &lt;/span&gt;&lt;span style=&quot;color: rgb(170, 9, 130);&quot;&gt;18&lt;/span&gt;&lt;span style=&quot;color: rgb(72, 118, 214);&quot;&gt;) &lt;/span&gt;&lt;span style=&quot;color: rgb(12, 150, 155);&quot;&gt;AND &lt;/span&gt;(&lt;span style=&quot;color: rgb(72, 118, 214);&quot;&gt;age &lt;/span&gt;&lt;span style=&quot;color: rgb(153, 76, 195);&quot;&gt;&amp;lt;&lt;/span&gt;&lt;span style=&quot;color: rgb(72, 118, 214);&quot;&gt; &lt;/span&gt;&lt;span style=&quot;color: rgb(170, 9, 130);&quot;&gt;30&lt;/span&gt;))&lt;/span&gt;&lt;/div&gt;&lt;div&gt;Relation [name, age, city, &lt;span style=&quot;color: rgb(72, 118, 214);&quot;&gt;...&lt;/span&gt;] csv&lt;/div&gt;&lt;/div&gt;&lt;/div&gt;" style="rounded=1;whiteSpace=wrap;html=1;" vertex="1" parent="1">
          <mxGeometry x="710" y="550" width="301" height="140" as="geometry" />
        </mxCell>
        <mxCell id="pLtHJVitbu6P245L-ZSa-11" style="edgeStyle=orthogonalEdgeStyle;rounded=0;orthogonalLoop=1;jettySize=auto;html=1;entryX=0.465;entryY=-0.014;entryDx=0;entryDy=0;entryPerimeter=0;" edge="1" parent="1" source="pLtHJVitbu6P245L-ZSa-5" target="pLtHJVitbu6P245L-ZSa-10">
          <mxGeometry relative="1" as="geometry" />
        </mxCell>
        <mxCell id="pLtHJVitbu6P245L-ZSa-13" value="Yes" style="edgeLabel;html=1;align=center;verticalAlign=middle;resizable=0;points=[];" vertex="1" connectable="0" parent="pLtHJVitbu6P245L-ZSa-11">
          <mxGeometry x="-0.0775" y="1" relative="1" as="geometry">
            <mxPoint as="offset" />
          </mxGeometry>
        </mxCell>
        <mxCell id="pLtHJVitbu6P245L-ZSa-18" style="edgeStyle=orthogonalEdgeStyle;rounded=0;orthogonalLoop=1;jettySize=auto;html=1;entryX=1;entryY=0.5;entryDx=0;entryDy=0;startArrow=classic;startFill=1;" edge="1" parent="1" source="pLtHJVitbu6P245L-ZSa-14" target="pLtHJVitbu6P245L-ZSa-17">
          <mxGeometry relative="1" as="geometry" />
        </mxCell>
        <mxCell id="pLtHJVitbu6P245L-ZSa-21" style="edgeStyle=orthogonalEdgeStyle;rounded=0;orthogonalLoop=1;jettySize=auto;html=1;entryX=1;entryY=0.5;entryDx=0;entryDy=0;" edge="1" parent="1" source="pLtHJVitbu6P245L-ZSa-14" target="pLtHJVitbu6P245L-ZSa-22">
          <mxGeometry relative="1" as="geometry">
            <mxPoint x="849.9999999999998" y="950.0000000000002" as="targetPoint" />
            <Array as="points">
              <mxPoint x="1120" y="950" />
            </Array>
          </mxGeometry>
        </mxCell>
        <mxCell id="pLtHJVitbu6P245L-ZSa-14" value="&lt;span style=&quot;text-align: start;&quot;&gt;&lt;font size=&quot;3&quot;&gt;Data to binary (1,0)&lt;/font&gt;&lt;/span&gt;" style="rounded=0;whiteSpace=wrap;html=1;" vertex="1" parent="1">
          <mxGeometry x="1060" y="770" width="120" height="60" as="geometry" />
        </mxCell>
        <mxCell id="pLtHJVitbu6P245L-ZSa-15" value="&lt;h1 style=&quot;margin-top: 0px;&quot;&gt;Tungsten&lt;/h1&gt;&lt;p&gt;Data will be converted to binary and execute the query to improve performance of CPU and memory execution&lt;/p&gt;" style="text;html=1;whiteSpace=wrap;overflow=hidden;rounded=0;" vertex="1" parent="1">
          <mxGeometry x="1060" y="640" width="180" height="110" as="geometry" />
        </mxCell>
        <mxCell id="pLtHJVitbu6P245L-ZSa-17" value="Query + Data" style="rounded=1;whiteSpace=wrap;html=1;" vertex="1" parent="1">
          <mxGeometry x="801" y="770" width="120" height="60" as="geometry" />
        </mxCell>
        <mxCell id="pLtHJVitbu6P245L-ZSa-22" value="return result" style="rounded=1;whiteSpace=wrap;html=1;" vertex="1" parent="1">
          <mxGeometry x="550" y="930" width="120" height="60" as="geometry" />
        </mxCell>
        <mxCell id="pLtHJVitbu6P245L-ZSa-23" value="&lt;h1 style=&quot;margin-top: 0px;&quot;&gt;Catalyst&lt;/h1&gt;&lt;p&gt;This method join and improve functions before send tungsten.&lt;/p&gt;" style="text;html=1;whiteSpace=wrap;overflow=hidden;rounded=0;" vertex="1" parent="1">
          <mxGeometry x="900" y="410" width="180" height="110" as="geometry" />
        </mxCell>
      </root>
    </mxGraphModel>
  </diagram>
</mxfile>
